<svg width="1280" height="720" xmlns="http://www.w3.org/2000/svg" xmlns:xlink="http://www.w3.org/1999/xlink" overflow="hidden"><defs><clipPath id="clip0"><rect x="0" y="0" width="1280" height="720"/></clipPath><clipPath id="clip1"><rect x="195" y="569" width="96" height="96"/></clipPath><clipPath id="clip2"><rect x="195" y="569" width="96" height="96"/></clipPath><clipPath id="clip3"><rect x="195" y="569" width="96" height="96"/></clipPath><clipPath id="clip4"><rect x="89" y="568" width="96" height="96"/></clipPath><clipPath id="clip5"><rect x="89" y="568" width="96" height="96"/></clipPath><clipPath id="clip6"><rect x="89" y="568" width="96" height="96"/></clipPath><clipPath id="clip7"><rect x="195" y="477" width="96" height="96"/></clipPath><clipPath id="clip8"><rect x="195" y="477" width="96" height="96"/></clipPath><clipPath id="clip9"><rect x="195" y="477" width="96" height="96"/></clipPath><clipPath id="clip10"><rect x="89" y="477" width="96" height="96"/></clipPath><clipPath id="clip11"><rect x="89" y="477" width="96" height="96"/></clipPath><clipPath id="clip12"><rect x="89" y="477" width="96" height="96"/></clipPath><clipPath id="clip13"><rect x="882" y="472" width="96" height="96"/></clipPath><clipPath id="clip14"><rect x="882" y="472" width="96" height="96"/></clipPath><clipPath id="clip15"><rect x="882" y="472" width="96" height="96"/></clipPath><clipPath id="clip16"><rect x="433" y="435" width="96" height="96"/></clipPath><clipPath id="clip17"><rect x="433" y="435" width="96" height="96"/></clipPath><clipPath id="clip18"><rect x="433" y="435" width="96" height="96"/></clipPath><clipPath id="clip19"><rect x="670" y="454" width="66" height="65"/></clipPath><clipPath id="clip20"><rect x="670" y="454" width="66" height="65"/></clipPath><clipPath id="clip21"><rect x="670" y="454" width="66" height="65"/></clipPath><clipPath id="clip22"><rect x="712" y="400" width="139" height="139"/></clipPath><clipPath id="clip23"><rect x="712" y="400" width="139" height="139"/></clipPath><clipPath id="clip24"><rect x="712" y="400" width="139" height="139"/></clipPath><clipPath id="clip25"><rect x="498" y="400" width="138" height="139"/></clipPath><clipPath id="clip26"><rect x="498" y="400" width="138" height="139"/></clipPath><clipPath id="clip27"><rect x="498" y="400" width="138" height="139"/></clipPath><clipPath id="clip28"><rect x="1082" y="360" width="44" height="45"/></clipPath><clipPath id="clip29"><rect x="1082" y="360" width="44" height="45"/></clipPath><clipPath id="clip30"><rect x="1082" y="360" width="44" height="45"/></clipPath><clipPath id="clip31"><rect x="762" y="316" width="17" height="17"/></clipPath><clipPath id="clip32"><rect x="762" y="316" width="17" height="17"/></clipPath><clipPath id="clip33"><rect x="762" y="316" width="17" height="17"/></clipPath><clipPath id="clip34"><rect x="540" y="311" width="35" height="34"/></clipPath><clipPath id="clip35"><rect x="540" y="311" width="35" height="34"/></clipPath><clipPath id="clip36"><rect x="540" y="311" width="35" height="34"/></clipPath></defs><g clip-path="url(#clip0)"><rect x="0" y="0" width="1280" height="720" fill="#FFFFFF"/><path d="M51 183.003C51 126.668 96.6681 81 153.003 81L1162 81C1218.33 81 1264 126.668 1264 183.003L1264 590.997C1264 647.332 1218.33 693 1162 693L153.003 693C96.6681 693 51 647.332 51 590.997Z" stroke="#4472C4" stroke-width="8" stroke-miterlimit="8" fill="none" fill-rule="evenodd"/><text fill="#203864" font-family="Calibri,Calibri_MSFontService,sans-serif" font-weight="700" font-size="80" transform="translate(371.211 180)">Getting attention</text><text fill="#001628" font-family="Franklin Gothic Book,Franklin Gothic Book_MSFontService,sans-serif" font-weight="400" font-size="16" transform="translate(90.193 269)">When changing cars</text><g clip-path="url(#clip1)"><g clip-path="url(#clip2)"><g clip-path="url(#clip3)"><path d="M233.98 594.99C233.98 601.612 228.612 606.98 221.99 606.98 215.368 606.98 210 601.612 210 594.99 210 588.368 215.368 583 221.99 583 228.612 583 233.98 588.368 233.98 594.99Z" fill="#203864"/><path d="M275.65 584.87 242 593.27 242 602.89 248.65 604.56 249.34 607.51C248.684 607.754 248.09 608.14 247.6 608.64L237.89 618.34 233.39 618.34C231.212 612.081 224.372 608.772 218.113 610.951 213.387 612.595 210.178 616.998 210.06 622L210.06 651 234 651 234 628.34 240 628.34C241.327 628.342 242.6 627.817 243.54 626.88L254.71 615.71C255.93 614.471 256.418 612.688 256 611L259 611.74 259.41 611.74C259.87 611.737 260.304 611.532 260.6 611.18L263.25 608.08 275.64 611.18C276.284 611.281 276.888 610.841 276.989 610.197 276.994 610.165 276.998 610.133 277 610.1L277 585.89C276.986 585.294 276.491 584.822 275.895 584.836 275.812 584.838 275.73 584.849 275.65 584.87ZM259.23 609.53 254.34 608.34C253.546 607.677 252.562 607.282 251.53 607.21L251.06 605.1 260.94 607.52Z" fill="#203864"/><path d="M238.54 602.21C239.346 602.21 240 601.556 240 600.75L240 594.75C240 593.944 239.346 593.29 238.54 593.29 237.734 593.29 237.08 593.944 237.08 594.75L237.08 600.75C237.08 601.556 237.734 602.21 238.54 602.21Z" fill="#203864"/></g></g></g><g clip-path="url(#clip4)"><g clip-path="url(#clip5)"><g clip-path="url(#clip6)"><path d="M165 642C165 643.1 164.1 644 163 644 161.9 644 161 643.1 161 642L161 594 165 594 165 642ZM111 644C109.9 644 109 643.1 109 642L109 588 155 588 155 642C155 642.7 155.1 643.4 155.3 644L111 644ZM161 588 161 582 103 582 103 642C103 646.4 106.6 650 111 650L163 650C167.4 650 171 646.4 171 642L171 588 161 588Z" fill="#203864"/><path d="M113 594 151 594 151 598 113 598Z" fill="#203864"/><path d="M134 602 151 602 151 606 134 606Z" fill="#203864"/><path d="M134 610 151 610 151 614 134 614Z" fill="#203864"/><path d="M113 602 130 602 130 614 113 614Z" fill="#203864"/><path d="M113 618 151 618 151 622 113 622Z" fill="#203864"/><path d="M134 626 151 626 151 638 134 638Z" fill="#203864"/><path d="M113 626 130 626 130 630 113 630Z" fill="#203864"/><path d="M113 634 130 634 130 638 113 638Z" fill="#203864"/></g></g></g><g clip-path="url(#clip7)"><g clip-path="url(#clip8)"><g clip-path="url(#clip9)"><path d="M240.61 545.14C240.61 547.647 238.577 549.68 236.07 549.68 233.563 549.68 231.53 547.647 231.53 545.14 231.53 542.633 233.563 540.6 236.07 540.6 238.577 540.6 240.61 542.633 240.61 545.14Z" fill="#203864"/><path d="M245 560 245 555.46C244.985 554.753 244.655 554.089 244.1 553.65 242.795 552.644 241.303 551.91 239.71 551.49 238.508 551.121 237.258 550.932 236 550.93 234.744 550.949 233.496 551.138 232.29 551.49 230.715 551.956 229.23 552.687 227.9 553.65 227.345 554.089 227.015 554.753 227 555.46L227 560Z" fill="#203864"/><path d="M260.47 545.14C260.47 547.647 258.437 549.68 255.93 549.68 253.423 549.68 251.39 547.647 251.39 545.14 251.39 542.633 253.423 540.6 255.93 540.6 258.437 540.6 260.47 542.633 260.47 545.14Z" fill="#203864"/><path d="M265 560 265 555.46C264.985 554.753 264.655 554.089 264.1 553.65 262.795 552.644 261.303 551.91 259.71 551.49 258.508 551.121 257.258 550.932 256 550.93 254.744 550.949 253.496 551.138 252.29 551.49 250.715 551.956 249.23 552.687 247.9 553.65 247.345 554.089 247.015 554.753 247 555.46L247 560Z" fill="#203864"/><path d="M280.47 545.14C280.47 547.647 278.437 549.68 275.93 549.68 273.423 549.68 271.39 547.647 271.39 545.14 271.39 542.633 273.423 540.6 275.93 540.6 278.437 540.6 280.47 542.633 280.47 545.14Z" fill="#203864"/><path d="M285 560 285 555.46C284.985 554.753 284.655 554.089 284.1 553.65 282.795 552.644 281.303 551.91 279.71 551.49 278.508 551.121 277.258 550.932 276 550.93 274.744 550.949 273.496 551.138 272.29 551.49 270.715 551.956 269.23 552.687 267.9 553.65 267.345 554.089 267.015 554.753 267 555.46L267 560Z" fill="#203864"/><path d="M222.42 503.16C222.42 506.441 219.761 509.1 216.48 509.1 213.199 509.1 210.54 506.441 210.54 503.16 210.54 499.879 213.199 497.22 216.48 497.22 219.761 497.22 222.42 499.879 222.42 503.16Z" fill="#203864"/><path d="M251.51 500.87C250.922 500.29 249.978 500.29 249.39 500.87L236.47 513.79C235.438 513.499 234.328 513.781 233.56 514.53 233.35 514.74 229.62 520.84 229.62 520.84L228.5 516.07C228.352 515.455 228.045 514.89 227.61 514.43 225.767 512.94 223.646 511.832 221.37 511.17 219.761 510.826 218.124 510.628 216.48 510.58 214.821 510.606 213.173 510.854 211.58 511.32 209.284 511.922 207.154 513.037 205.35 514.58 204.911 515.037 204.604 515.603 204.46 516.22 204.46 516.22 200.15 534.32 200.15 534.62 200.15 536.277 201.493 537.62 203.15 537.62 204.478 537.586 205.625 536.683 205.97 535.4L209.09 522.49 209.09 564 215 564 215 537.29 218 537.29 218 564 223.9 564 223.9 522.3 225 527C225.076 527.325 225.292 527.599 225.59 527.75 226.74 528.633 228.141 529.126 229.59 529.16 230.534 529.292 231.469 528.867 231.99 528.07L238.09 518.07C238.48 517.455 238.626 516.717 238.5 516L251.5 503C252.089 502.414 252.093 501.462 251.51 500.87Z" fill="#203864"/><path d="M272 487 223 487C220.791 487 219 488.791 219 491L219 494.6C220.529 495.016 221.913 495.847 223 497L223 491 272 491 272 524 237.87 524 235.43 528 272 528C274.209 528 276 526.209 276 524L276 491C276 488.791 274.209 487 272 487Z" fill="#203864"/></g></g></g><g clip-path="url(#clip10)"><g clip-path="url(#clip11)"><g clip-path="url(#clip12)"><path d="M97 543 97 497 177 497 177 543 97 543ZM145 555 129 555 129 549 145 549 145 555ZM183 549 183 491 91 491 91 549 123 549 123 555 105 555C103.9 555 103 555.9 103 557L103 559 171 559 171 557C171 555.9 170.1 555 169 555L151 555 151 549 183 549Z" fill="#203864"/></g></g></g><text fill="#001628" font-family="Franklin Gothic Book,Franklin Gothic Book_MSFontService,sans-serif" font-weight="400" font-size="16" transform="translate(84.3612 461)">External stimuli</text><g clip-path="url(#clip13)"><g clip-path="url(#clip14)"><g clip-path="url(#clip15)"><path d="M921 487C921 490.866 917.866 494 914 494 910.134 494 907 490.866 907 487 907 483.134 910.134 480 914 480 917.866 480 921 483.134 921 487Z" fill="#203864"/><path d="M953 487C953 490.866 949.866 494 946 494 942.134 494 939 490.866 939 487 939 483.134 942.134 480 946 480 949.866 480 953 483.134 953 487Z" fill="#203864"/><path d="M964.9 524.1 959.2 503C959 502.4 958.7 501.8 958.3 501.4 956.4 499.4 954 497.9 951.4 497 949.7 496.3 947.9 496 946 496 944.1 496 942.3 496.3 940.6 496.9 937.9 497.8 935.6 499.3 933.7 501.3 933.3 501.8 933 502.3 932.8 502.9L930 513.4 927.2 503C927 502.4 926.7 501.8 926.3 501.4 924.4 499.4 922 497.9 919.4 497 917.7 496.3 915.9 496 914 496 912.1 496 910.3 496.3 908.6 496.9 905.9 497.8 903.6 499.3 901.7 501.3 901.3 501.8 901 502.3 900.8 502.9L895.2 524C894.8 525.6 895.6 527.4 897.3 527.8 897.5 528 897.7 528 898 528 899.3 528 900.5 527.1 900.9 525.8L906 506.6 906 529 906 560 912 560 912 529 916 529 916 560 922 560 922 529 922 506.6 927.1 525.7C927.5 527 928.7 527.9 930 527.9 930.3 527.9 930.5 527.9 930.8 527.8 931.7 527.5 932.4 526.8 932.7 526 932.8 526 938 506.6 938 506.6L938 514.7 932.3 536 938 536 938 560 944 560 944 536 948 536 948 560 954 560 954 536 959.7 536 954 514.7 954 506.6 959.1 525.7C959.5 527 960.7 527.9 962 527.9 962.3 527.9 962.5 527.9 962.8 527.8 964.4 527.4 965.3 525.7 964.9 524.1Z" fill="#203864"/></g></g></g><path d="M1011.39 366.553C1008.5 347.461 1023.36 329.878 1044.58 327.281 1053.17 326.228 1061.91 327.802 1069.4 331.749 1077.33 318.293 1095.87 313.179 1110.8 320.326 1113.41 321.576 1115.81 323.16 1117.91 325.029 1124.09 313.875 1139.14 309.344 1151.52 314.908 1154.95 316.448 1157.94 318.675 1160.26 321.418 1170.22 310.87 1187.81 309.567 1199.56 318.508 1204.5 322.266 1207.83 327.449 1208.97 333.168 1225.29 337.174 1234.91 352.349 1230.47 367.063 1230.1 368.3 1229.63 369.512 1229.07 370.69 1242.15 386.021 1238.95 407.994 1221.91 419.769 1216.61 423.435 1210.35 425.808 1203.73 426.66 1203.58 443.153 1188.59 456.417 1170.25 456.285 1164.13 456.24 1158.13 454.672 1152.93 451.754 1146.73 470.246 1125.09 480.697 1104.6 475.098 1096.02 472.752 1088.6 467.79 1083.61 461.058 1062.63 472.447 1035.4 466.321 1022.79 447.375 1022.63 447.137 1022.48 446.896 1022.32 446.655 1008.6 448.101 996.159 439.284 994.548 426.96 993.689 420.392 996.098 413.817 1001.13 408.989 989.246 402.69 985.253 388.864 992.214 378.108 996.23 371.903 1003.27 367.801 1011.18 367.064Z" stroke="#203864" stroke-width="5.6" stroke-miterlimit="8" fill="none" fill-rule="evenodd"/><path d="M971.03 487.759C971.03 490.275 968.99 492.314 966.474 492.314 963.958 492.314 961.919 490.275 961.919 487.759 961.919 485.243 963.958 483.203 966.474 483.203 968.99 483.203 971.03 485.243 971.03 487.759Z" stroke="#203864" stroke-width="5.6" stroke-miterlimit="8" fill="none" fill-rule="evenodd"/><path d="M992.165 477.15C992.165 482.182 988.086 486.261 983.054 486.261 978.022 486.261 973.943 482.182 973.943 477.15 973.943 472.118 978.022 468.038 983.054 468.038 988.086 468.038 992.165 472.118 992.165 477.15Z" stroke="#203864" stroke-width="5.6" stroke-miterlimit="8" fill="none" fill-rule="evenodd"/><path d="M1020.97 461.63C1020.97 469.178 1014.86 475.296 1007.31 475.296 999.76 475.296 993.642 469.178 993.642 461.63 993.642 454.082 999.76 447.963 1007.31 447.963 1014.86 447.963 1020.97 454.082 1020.97 461.63Z" stroke="#203864" stroke-width="5.6" stroke-miterlimit="8" fill="none" fill-rule="evenodd"/><path d="M1015.94 411.376C1010.87 411.733 1005.79 410.677 1001.4 408.35M1028.77 444.487C1026.73 445.218 1024.59 445.705 1022.41 445.935M1083.6 460.397C1082.06 458.325 1080.78 456.11 1079.76 453.792M1154.49 443.925C1154.26 446.383 1153.75 448.813 1152.96 451.173M1184.93 399.14C1196.43 404.181 1203.69 414.719 1203.59 426.229M1228.95 370.288C1227.09 374.208 1224.24 377.684 1220.64 380.446M1209.01 332.599C1209.33 334.181 1209.47 335.788 1209.45 337.396M1155.93 327.003C1157.01 324.79 1158.45 322.729 1160.19 320.885M1116.11 329.919C1116.55 328.09 1117.24 326.317 1118.17 324.642M1069.37 331.71C1072.08 333.138 1074.58 334.857 1076.83 336.829M1012.69 371.94C1012.1 370.178 1011.67 368.377 1011.39 366.554" stroke="#203864" stroke-width="5.6" stroke-miterlimit="8" fill="none" fill-rule="evenodd"/><text fill="#001628" font-family="Franklin Gothic Book,Franklin Gothic Book_MSFontService,sans-serif" font-weight="400" font-size="43" transform="translate(900.463 223)">Get consideration</text><path d="M307 351 429.471 351 429.471 520.228 425.471 516.228 862.461 516.228 862.461 524.228 421.471 524.228 421.471 355 425.471 359 307 359ZM858.461 508.228 882.461 520.228 858.461 532.228Z" fill="#4472C4"/><path d="M0-4 122.407-4 122.407 53.4778 118.407 49.4778 555.461 49.4778 555.461 57.4778 114.407 57.4778 114.407 0 118.407 4 0 4ZM551.461 41.4778 575.461 53.4778 551.461 65.4778Z" fill="#4472C4" transform="matrix(1 0 0 -1 307 573.478)"/><text fill="#001628" font-family="Franklin Gothic Book,Franklin Gothic Book_MSFontService,sans-serif" font-weight="400" font-size="16" transform="translate(307.42 343)">Every 6</text><text fill="#001628" font-family="Franklin Gothic Book,Franklin Gothic Book_MSFontService,sans-serif" font-weight="400" font-size="16" transform="translate(357.32 343)">-</text><text fill="#001628" font-family="Franklin Gothic Book,Franklin Gothic Book_MSFontService,sans-serif" font-weight="400" font-size="16" transform="translate(361.32 343)">7 years</text><text fill="#001628" font-family="Franklin Gothic Book,Franklin Gothic Book_MSFontService,sans-serif" font-weight="400" font-size="16" transform="translate(307.42 562)">Every year</text><g clip-path="url(#clip16)"><g clip-path="url(#clip17)"><g clip-path="url(#clip18)"><path d="M453 484.3 453 496C453 501.5 465.5 507 481 507 496.5 507 509 501.5 509 496L509 484.3 481 494.2 453 484.3Z" fill="#203864"/><path d="M481 489.9 524.6 474.6 481 459 437.4 474.6 443 476.6 443 495C443 496.1 443.9 497 445 497 446.1 497 447 496.1 447 495L447 478 481 489.9Z" fill="#203864"/></g></g></g><path d="M638.5 450 624.686 438.5 630.436 438.5C622.128 418.19 593.106 404 559.875 404L571.375 404C604.606 404 633.628 418.19 641.936 438.5L647.686 438.5Z" fill="#2F5597" fill-rule="evenodd"/><path d="M565.625 404.143C527.726 406.037 498.5 426.003 498.5 450L487 450C487 424.595 519.627 404 559.875 404 561.794 404 563.712 404.048 565.625 404.143Z" fill="#264479" fill-rule="evenodd"/><path d="M863.5 450 849.67 438.5 855.42 438.5C847.055 418.19 817.834 404 784.375 404L795.875 404C829.334 404 858.555 418.19 866.92 438.5L872.67 438.5Z" fill="#2F5597" fill-rule="evenodd"/><path d="M790.125 404.142C751.949 406.023 722.5 425.993 722.5 450L711 450C711 424.595 743.851 404 784.375 404 786.294 404 788.212 404.047 790.125 404.141Z" fill="#264479" fill-rule="evenodd"/><g clip-path="url(#clip19)"><g clip-path="url(#clip20)"><g clip-path="url(#clip21)"><path d="M32.5 6.77083C18.2812 6.77083 6.77083 18.2812 6.77083 32.5 6.77083 46.7188 18.2812 58.2292 32.5 58.2292 46.7188 58.2292 58.2292 46.7188 58.2292 32.5 58.2292 18.2812 46.7188 6.77083 32.5 6.77083ZM16.9948 19.6354C16.7917 18.8906 17.1979 18.1458 17.875 17.9427 18.1458 17.875 23.901 16.25 28.099 21.0573 28.5729 21.599 28.5052 22.4792 27.9635 22.9531 27.6927 23.1562 27.4219 23.2917 27.0833 23.2917 26.6771 23.2917 26.3385 23.1562 26.0677 22.8177 23.0208 19.2969 18.8229 20.4479 18.6875 20.5156 17.9427 20.7188 17.1979 20.3125 16.9948 19.6354ZM17.6042 28.4375C17.6042 26.2031 19.4323 24.375 21.6667 24.375 23.901 24.375 25.7292 26.2031 25.7292 28.4375 25.7292 30.6719 23.901 32.5 21.6667 32.5 19.4323 32.5 17.6042 30.6719 17.6042 28.4375ZM32.5 45.3646C29.3854 45.3646 26.6094 46.5156 24.4427 48.4115 24.9167 44.4167 28.3698 41.3021 32.5 41.3021 36.6302 41.3021 40.0833 44.4167 40.5573 48.4115 38.3906 46.5156 35.6146 45.3646 32.5 45.3646ZM43.3333 32.5C41.099 32.5 39.2708 30.6719 39.2708 28.4375 39.2708 26.2031 41.099 24.375 43.3333 24.375 45.5677 24.375 47.3958 26.2031 47.3958 28.4375 47.3958 30.6719 45.5677 32.5 43.3333 32.5ZM48.0052 19.6354C47.8021 20.3802 47.0573 20.7865 46.3125 20.5833 46.1094 20.5156 41.9115 19.3646 38.9323 22.8854 38.6615 23.224 38.2552 23.3594 37.9167 23.3594 37.5781 23.3594 37.3073 23.224 37.0365 23.0208 36.4948 22.5469 36.4271 21.6667 36.901 21.125 41.099 16.3177 46.8542 17.9427 47.125 18.0104 47.8021 18.1458 48.2083 18.8906 48.0052 19.6354Z" fill="#203864" transform="matrix(1.01538 0 0 1 670 454)"/></g></g></g><text fill="#001628" font-family="Franklin Gothic Book,Franklin Gothic Book_MSFontService,sans-serif" font-weight="400" font-size="16" transform="translate(453.089 269)">Know autonomous</text><text fill="#001628" font-family="Franklin Gothic Book,Franklin Gothic Book_MSFontService,sans-serif" font-weight="400" font-size="16" transform="translate(583.302 269)">cars exist</text><text fill="#001628" font-family="Franklin Gothic Book,Franklin Gothic Book_MSFontService,sans-serif" font-weight="400" font-size="43" transform="translate(453.916 222)">Overcoming routine</text><g clip-path="url(#clip22)"><g clip-path="url(#clip23)"><g clip-path="url(#clip24)"><path d="M777.475 505.423C759.312 502.432 746.002 486.705 746.055 468.298 746.082 466.018 746.315 463.746 746.75 461.508L746.866 461.508 749.516 466.097C750.315 467.485 752.088 467.961 753.476 467.162 754.863 466.362 755.339 464.589 754.54 463.202L748.386 452.559C748.003 451.897 747.373 451.412 746.634 451.213 745.891 451.013 745.099 451.117 744.433 451.502L733.719 457.685C732.302 458.426 731.754 460.176 732.495 461.593 733.236 463.01 734.986 463.558 736.403 462.817 736.475 462.779 736.546 462.739 736.615 462.695L741.045 460.132C740.53 462.824 740.268 465.558 740.263 468.298 740.198 489.518 755.527 507.656 776.461 511.128L776.954 511.128C778.553 511.256 779.953 510.063 780.081 508.463 780.209 506.864 779.016 505.464 777.417 505.336Z" fill="#203864"/><path d="M827.138 468.298C827.144 463.124 826.227 457.991 824.431 453.139 823.871 451.639 822.202 450.877 820.702 451.437 819.203 451.997 818.441 453.666 819.001 455.166 826.251 474.652 816.332 496.326 796.846 503.576 796.707 503.628 796.568 503.679 796.428 503.729L796.428 503.729 799.063 499.124C799.863 497.733 799.383 495.957 797.992 495.157 796.6 494.357 794.824 494.837 794.024 496.229L787.943 506.9C787.148 508.287 787.627 510.057 789.015 510.852 789.015 510.852 789.015 510.852 789.015 510.852L799.686 516.948C801.077 517.748 802.853 517.268 803.653 515.877 804.453 514.485 803.973 512.709 802.582 511.909L798.064 509.347C815.534 503.286 827.219 486.789 827.138 468.298Z" fill="#203864"/><path d="M802.524 439.296C800.924 439.296 799.628 440.593 799.628 442.192 799.628 443.792 800.924 445.088 802.524 445.088L814.426 445.088C814.536 445.095 814.648 445.095 814.759 445.088 815.316 445.088 815.861 444.922 816.322 444.61L816.525 444.48 816.612 444.408 816.612 444.408 816.8 444.263C817.367 443.722 817.691 442.975 817.698 442.192L817.698 429.914C817.698 428.315 816.401 427.018 814.802 427.018 813.203 427.018 811.906 428.315 811.906 429.914L811.906 435.199 811.906 435.199C793.647 419.639 766.231 421.828 750.671 440.088 750.604 440.167 750.538 440.245 750.471 440.324 749.44 441.548 749.595 443.376 750.819 444.408 752.042 445.439 753.87 445.284 754.902 444.06 768.199 428.221 791.784 426.075 807.722 439.253Z" fill="#203864"/></g></g></g><g clip-path="url(#clip25)"><g clip-path="url(#clip26)"><g clip-path="url(#clip27)"><path d="M65.0038 104.664C46.9717 101.695 33.7575 86.0817 33.81 67.8069 33.8372 65.5434 34.068 63.2871 34.5 61.065L34.615 61.065 37.2456 65.6219C38.0396 66.9993 39.7998 67.4724 41.1772 66.6784 42.5546 65.8845 43.0277 64.1243 42.2337 62.7469L36.1244 52.1812C35.744 51.5233 35.1187 51.0426 34.385 50.8444 33.6474 50.6461 32.8613 50.7496 32.2 51.1319L21.5625 57.27C20.1556 58.006 19.6117 59.7432 20.3477 61.1501 21.0837 62.5571 22.8209 63.1009 24.2278 62.3649 24.2994 62.3276 24.3694 62.2872 24.4375 62.2437L28.8362 59.6994C28.3246 62.3717 28.0647 65.0861 28.06 67.8069 27.9947 88.8743 43.2138 106.882 63.9975 110.328L64.4863 110.328C66.0741 110.455 67.4642 109.271 67.5912 107.683 67.7183 106.095 66.5341 104.705 64.9463 104.578Z" fill="#203864" transform="matrix(1 0 0 1.00725 498 400)"/><path d="M114.31 67.8069C114.316 62.6701 113.406 57.5735 111.622 52.7563 111.066 51.2677 109.409 50.5115 107.92 51.0672 106.432 51.6229 105.676 53.2802 106.231 54.7687 113.429 74.1146 103.582 95.6329 84.2355 102.831 84.0975 102.882 83.9592 102.933 83.8206 102.982L83.8206 102.982 86.4369 98.4112C87.2308 97.0298 86.7546 95.2664 85.3731 94.4725 83.9917 93.6786 82.2283 94.1548 81.4344 95.5362L75.3969 106.131C74.607 107.508 75.0831 109.265 76.4605 110.055 76.4605 110.055 76.4606 110.055 76.4606 110.055L87.055 116.107C88.4364 116.901 90.1998 116.425 90.9938 115.043 91.7877 113.662 91.3114 111.898 89.93 111.104L85.445 108.56C102.789 102.543 114.39 86.165 114.31 67.8069Z" fill="#203864" transform="matrix(1 0 0 1.00725 498 400)"/><path d="M89.8725 39.0137C88.2846 39.0137 86.9975 40.3009 86.9975 41.8887 86.9975 43.4766 88.2846 44.7637 89.8725 44.7637L101.689 44.7637C101.799 44.7708 101.909 44.7708 102.019 44.7637 102.573 44.7639 103.113 44.5987 103.572 44.2894L103.773 44.16 103.859 44.0881 103.859 44.0881 104.046 43.9444C104.609 43.4079 104.931 42.6663 104.938 41.8887L104.938 29.6987C104.938 28.1109 103.65 26.8237 102.062 26.8237 100.475 26.8237 99.1875 28.1109 99.1875 29.6987L99.1875 34.9456 99.1875 34.9456C81.0592 19.4981 53.8406 21.6713 38.393 39.7996 38.3265 39.8775 38.2604 39.9559 38.1944 40.0344 37.1703 41.2491 37.3247 43.064 38.5394 44.0881 39.7541 45.1122 41.569 44.9578 42.5931 43.7431 55.795 28.0185 79.2096 25.8877 95.0331 38.9706Z" fill="#203864" transform="matrix(1 0 0 1.00725 498 400)"/></g></g></g><text fill="#001628" font-family="Franklin Gothic Book,Franklin Gothic Book_MSFontService,sans-serif" font-weight="400" font-size="43" transform="translate(82.9638 222)">Triggering attention</text><path d="M89.5001 230.5 427.625 230.5" stroke="#000000" stroke-width="0.666667" stroke-miterlimit="8" fill="none" fill-rule="evenodd"/><path d="M0 0 419.77 1.05438" stroke="#000000" stroke-width="0.666667" stroke-miterlimit="8" fill="none" fill-rule="evenodd" transform="matrix(1 0 0 -1 454.5 230.554)"/><path d="M899.5 229.5 1252.98 232.414" stroke="#000000" stroke-width="0.666667" stroke-miterlimit="8" fill="none" fill-rule="evenodd"/><path d="M486.153 322.253C483.942 308.866 495.326 296.536 511.579 294.715 518.165 293.977 524.862 295.08 530.597 297.848 536.673 288.413 550.874 284.827 562.314 289.839 564.315 290.715 566.151 291.826 567.765 293.136 572.498 285.315 584.026 282.138 593.514 286.039 596.14 287.119 598.43 288.681 600.21 290.604 607.838 283.208 621.318 282.294 630.318 288.564 634.1 291.198 636.65 294.833 637.529 298.844 650.028 301.653 657.401 312.294 653.998 322.611 653.712 323.478 653.353 324.328 652.923 325.154 662.948 335.905 660.494 351.313 647.442 359.57 643.38 362.14 638.581 363.804 633.51 364.402 633.397 375.967 621.915 385.268 607.863 385.175 603.169 385.144 598.576 384.045 594.594 381.998 589.841 394.965 573.263 402.294 557.566 398.368 550.987 396.722 545.304 393.243 541.484 388.523 525.412 396.508 504.551 392.213 494.89 378.928 494.768 378.76 494.648 378.592 494.531 378.422 484.013 379.437 474.485 373.254 473.25 364.612 472.592 360.006 474.438 355.396 478.296 352.01 469.188 347.593 466.129 337.899 471.462 330.357 474.539 326.005 479.936 323.129 485.993 322.612Z" stroke="#203864" stroke-width="5.6" stroke-miterlimit="8" fill="none" fill-rule="evenodd"/><path d="M466.527 453.645C466.527 455.409 465.096 456.839 463.332 456.839 461.568 456.839 460.138 455.409 460.138 453.645 460.138 451.88 461.568 450.45 463.332 450.45 465.096 450.45 466.527 451.88 466.527 453.645Z" stroke="#203864" stroke-width="5.6" stroke-miterlimit="8" fill="none" fill-rule="evenodd"/><path d="M486.737 434.689C486.737 438.218 483.876 441.078 480.348 441.078 476.819 441.078 473.959 438.218 473.959 434.689 473.959 431.161 476.819 428.3 480.348 428.3 483.876 428.3 486.737 431.161 486.737 434.689Z" stroke="#203864" stroke-width="5.6" stroke-miterlimit="8" fill="none" fill-rule="evenodd"/><path d="M511.214 410.98C511.214 416.272 506.924 420.563 501.631 420.563 496.338 420.563 492.048 416.272 492.048 410.98 492.048 405.687 496.338 401.396 501.631 401.396 506.924 401.396 511.214 405.687 511.214 410.98Z" stroke="#203864" stroke-width="5.6" stroke-miterlimit="8" fill="none" fill-rule="evenodd"/><path d="M489.641 353.684C485.752 353.935 481.865 353.195 478.5 351.562M499.47 376.902C497.907 377.415 496.268 377.757 494.596 377.918M541.473 388.059C540.297 386.606 539.312 385.053 538.536 383.427M595.785 376.508C595.612 378.232 595.219 379.936 594.613 381.591M619.104 345.104C627.92 348.639 633.483 356.029 633.405 364.1M652.834 324.873C651.406 327.621 649.227 330.059 646.466 331.996M637.555 298.444C637.798 299.554 637.91 300.681 637.891 301.808M596.889 294.52C597.719 292.968 598.818 291.523 600.151 290.23M566.379 296.565C566.718 295.282 567.249 294.039 567.959 292.865M530.574 297.821C532.649 298.823 534.569 300.028 536.291 301.411M487.151 326.031C486.698 324.796 486.365 323.533 486.153 322.254" stroke="#203864" stroke-width="5.6" stroke-miterlimit="8" fill="none" fill-rule="evenodd"/><path d="M448.5 278.5 659.876 278.5" stroke="#000000" stroke-width="0.666667" stroke-miterlimit="8" fill="none" fill-rule="evenodd"/><path d="M691.153 322.253C688.942 308.866 700.326 296.536 716.579 294.715 723.165 293.977 729.862 295.08 735.597 297.848 741.673 288.413 755.874 284.827 767.314 289.839 769.315 290.715 771.151 291.826 772.765 293.136 777.498 285.315 789.026 282.138 798.514 286.039 801.14 287.119 803.43 288.681 805.21 290.604 812.838 283.208 826.318 282.294 835.318 288.564 839.1 291.198 841.65 294.833 842.529 298.844 855.028 301.653 862.401 312.294 858.998 322.611 858.712 323.478 858.353 324.328 857.923 325.154 867.948 335.905 865.494 351.313 852.442 359.57 848.38 362.14 843.581 363.804 838.51 364.402 838.397 375.967 826.915 385.268 812.863 385.175 808.169 385.144 803.576 384.045 799.594 381.998 794.841 394.965 778.263 402.294 762.566 398.368 755.987 396.722 750.304 393.243 746.484 388.523 730.412 396.508 709.551 392.213 699.89 378.928 699.768 378.76 699.648 378.592 699.531 378.422 689.013 379.437 679.485 373.254 678.25 364.612 677.592 360.006 679.438 355.396 683.296 352.01 674.188 347.593 671.129 337.899 676.462 330.357 679.539 326.005 684.936 323.129 690.993 322.612Z" stroke="#203864" stroke-width="5.6" stroke-miterlimit="8" fill="none" fill-rule="evenodd"/><path d="M699.263 449.825C699.263 451.59 697.833 453.02 696.068 453.02 694.304 453.02 692.874 451.59 692.874 449.825 692.874 448.061 694.304 446.631 696.068 446.631 697.833 446.631 699.263 448.061 699.263 449.825Z" stroke="#203864" stroke-width="5.6" stroke-miterlimit="8" fill="none" fill-rule="evenodd"/><path d="M713.628 433.233C713.628 436.762 710.768 439.622 707.24 439.622 703.711 439.622 700.851 436.762 700.851 433.233 700.851 429.705 703.711 426.844 707.24 426.844 710.768 426.844 713.628 429.705 713.628 433.233Z" stroke="#203864" stroke-width="5.6" stroke-miterlimit="8" fill="none" fill-rule="evenodd"/><path d="M731.562 411.341C731.562 416.634 727.271 420.924 721.979 420.924 716.686 420.924 712.395 416.634 712.395 411.341 712.395 406.048 716.686 401.758 721.979 401.758 727.271 401.758 731.562 406.048 731.562 411.341Z" stroke="#203864" stroke-width="5.6" stroke-miterlimit="8" fill="none" fill-rule="evenodd"/><path d="M694.641 353.684C690.752 353.935 686.865 353.195 683.5 351.562M704.47 376.902C702.907 377.415 701.268 377.757 699.596 377.918M746.473 388.059C745.297 386.606 744.312 385.053 743.536 383.427M800.785 376.508C800.612 378.232 800.219 379.936 799.613 381.591M824.104 345.104C832.92 348.639 838.483 356.029 838.405 364.1M857.834 324.873C856.406 327.621 854.227 330.059 851.466 331.996M842.555 298.444C842.798 299.554 842.91 300.681 842.891 301.808M801.889 294.52C802.719 292.968 803.818 291.523 805.151 290.23M771.379 296.565C771.718 295.282 772.249 294.039 772.959 292.865M735.574 297.821C737.649 298.823 739.569 300.028 741.291 301.411M692.151 326.031C691.698 324.796 691.365 323.533 691.153 322.254" stroke="#203864" stroke-width="5.6" stroke-miterlimit="8" fill="none" fill-rule="evenodd"/><text fill="#001628" font-family="Franklin Gothic Book,Franklin Gothic Book_MSFontService,sans-serif" font-weight="400" font-size="15" transform="translate(675.444 268)">Dissatisfied with driving</text><path d="M670.5 278.5 881.876 278.5" stroke="#000000" stroke-width="0.666667" stroke-miterlimit="8" fill="none" fill-rule="evenodd"/><path d="M117.107 332.849C117.237 306.951 149.977 286.023 190.235 286.107 217.113 286.162 241.763 295.729 254.373 311L263.309 310.799 258.705 331.454 234.816 311.44 243.375 311.247C223.271 293.632 183.076 289.091 153.598 301.105 136.016 308.27 125.467 320.149 125.394 332.866Z" fill="#2F5597" fill-rule="evenodd"/><g clip-path="url(#clip28)"><g clip-path="url(#clip29)"><g clip-path="url(#clip30)"><path d="M29.5258 33 14.4008 33C12.5024 33 10.9633 34.539 10.9633 36.4375 10.9633 38.336 12.5024 39.875 14.4008 39.875L29.5258 39.875C31.4243 39.875 32.9633 38.336 32.9633 36.4375 32.9633 34.539 31.4243 33 29.5258 33ZM15.3175 37.8125C14.5581 37.8125 13.9425 37.1969 13.9425 36.4375 13.9425 35.6781 14.5581 35.0625 15.3175 35.0625 16.0769 35.0625 16.6925 35.6781 16.6925 36.4375 16.6925 37.1969 16.0769 37.8125 15.3175 37.8125ZM21.9633 37.8125C21.2039 37.8125 20.5883 37.1969 20.5883 36.4375 20.5883 35.6781 21.2039 35.0625 21.9633 35.0625 22.7227 35.0625 23.3383 35.6781 23.3383 36.4375 23.3383 37.1969 22.7227 37.8125 21.9633 37.8125ZM28.6092 37.8125C27.8498 37.8125 27.2342 37.1969 27.2342 36.4375 27.2342 35.6781 27.8498 35.0625 28.6092 35.0625 29.3686 35.0625 29.9842 35.6781 29.9842 36.4375 29.9842 37.1969 29.3686 37.8125 28.6092 37.8125Z" fill="#4472C4" transform="matrix(1 0 0 1.02273 1082 360)"/><path d="M25.1304 12.8333C25.1304 13.213 24.8226 13.5208 24.4429 13.5208 24.0632 13.5208 23.7554 13.213 23.7554 12.8333 23.7554 12.4536 24.0632 12.1458 24.4429 12.1458 24.8226 12.1458 25.1304 12.4536 25.1304 12.8333Z" fill="#4472C4" transform="matrix(1 0 0 1.02273 1082 360)"/><path d="M25.9463 8.25 22.9167 8.25 22.9167 6.16458C23.7936 5.65831 24.094 4.53707 23.5877 3.6602 23.0814 2.78333 21.9602 2.4829 21.0833 2.98916 20.2064 3.49542 19.906 4.61665 20.4123 5.49354 20.5732 5.77225 20.8046 6.00366 21.0833 6.16458L21.0833 8.25 18.0538 8.25C16.9436 8.25252 16.0442 9.15191 16.0417 10.2621L16.0417 15.4046C16.0442 16.5148 16.9436 17.4141 18.0538 17.4167L25.9463 17.4167C27.0564 17.4141 27.9558 16.5148 27.9583 15.4046L27.9583 10.2621C27.9558 9.15191 27.0564 8.25252 25.9463 8.25ZM19.7083 14.2083C18.9489 14.2083 18.3333 13.5927 18.3333 12.8333 18.3333 12.0739 18.9489 11.4583 19.7083 11.4583 20.4677 11.4583 21.0833 12.0739 21.0833 12.8333 21.0833 13.5927 20.4677 14.2083 19.7083 14.2083ZM24.2917 14.2083C23.5323 14.2083 22.9167 13.5927 22.9167 12.8333 22.9167 12.0739 23.5323 11.4583 24.2917 11.4583 25.0511 11.4583 25.6667 12.0739 25.6667 12.8333 25.6667 13.5927 25.0511 14.2083 24.2917 14.2083Z" fill="#4472C4" transform="matrix(1 0 0 1.02273 1082 360)"/><path d="M20.5471 12.8333C20.5471 13.213 20.2393 13.5208 19.8596 13.5208 19.4799 13.5208 19.1721 13.213 19.1721 12.8333 19.1721 12.4536 19.4799 12.1458 19.8596 12.1458 20.2393 12.1458 20.5471 12.4536 20.5471 12.8333Z" fill="#4472C4" transform="matrix(1 0 0 1.02273 1082 360)"/><path d="M33.9167 26.9592 33.9167 23.1413C33.9167 22.0047 32.9953 21.0833 31.8588 21.0833L29.3333 21.0833 29.3333 18.7917 14.6667 18.7917 14.6667 21.5417 11.2246 21.5417C11.1006 21.5417 11 21.4411 11 21.3171L11 17.5175C12.5756 17.0522 13.4756 15.3978 13.0103 13.8222 12.8855 13.3998 12.6686 13.0104 12.375 12.6821L11 13.9012C11.1923 14.1104 11.3015 14.3826 11.3071 14.6667 11.3036 15.2995 10.7878 15.8097 10.155 15.8063 9.5222 15.8028 9.01202 15.287 9.01546 14.6542 9.01693 14.3808 9.11607 14.1171 9.295 13.9104L7.92 12.705C6.83975 13.9461 6.97015 15.8279 8.21122 16.9081 8.492 17.1525 8.81604 17.3421 9.16667 17.4671L9.16667 21.3171C9.16667 22.4537 10.088 23.375 11.2246 23.375L14.6667 23.375 14.6667 31.625 29.3333 31.625 29.3333 22.9167 31.8588 22.9167C31.9828 22.9167 32.0833 23.0172 32.0833 23.1413L32.0833 26.9592C30.5178 27.4656 29.6593 29.1452 30.1658 30.7107 30.2925 31.1025 30.4991 31.4637 30.7725 31.7717L32.1475 30.5525C31.9578 30.3446 31.8532 30.0731 31.8542 29.7917 31.8547 29.1588 32.3681 28.6462 33.001 28.6468 33.6338 28.6473 34.1464 29.1608 34.1458 29.7936 34.1456 30.0712 34.0446 30.3392 33.8617 30.5479L35.2367 31.7533C36.3211 30.5193 36.1999 28.6398 34.9659 27.5554 34.6606 27.287 34.3035 27.0841 33.9167 26.9592ZM27.5 25.2083 26.2258 25.2083C26.1815 25.2163 26.1393 25.2334 26.1021 25.2588L24.6996 26.6933 23.6317 24.1633 21.6379 28.2883 20.24 22.9167 19.1629 25.2083 16.9583 25.2083 16.9583 24.2917 18.5808 24.2917 20.4875 20.2354 21.8992 25.6346 23.6912 21.9679 25.0112 25.0938 25.4696 24.6354C25.6708 24.4317 25.9401 24.3094 26.2258 24.2917L27.5 24.2917Z" fill="#4472C4" transform="matrix(1 0 0 1.02273 1082 360)"/></g></g></g><path d="M1066.61 387.8 1057.79 387.8 1057.79 375.38C1057.79 374.618 1057.16 374 1056.39 374 1055.62 374 1055 374.618 1055 375.38L1055 389.18C1055 389.942 1055.62 390.56 1056.39 390.56L1060.11 390.56 1060.11 394.24 1057.32 394.24 1057.32 397 1065.68 397 1065.68 394.24 1062.89 394.24 1062.89 390.56 1066.61 390.56C1067.38 390.56 1068 389.942 1068 389.18 1068 388.418 1067.38 387.8 1066.61 387.8Z" fill="#4472C4" fill-rule="evenodd"/><path d="M1066.72 377.361C1067 377.554 1067.32 377.659 1067.66 377.664L1072.36 377.664C1073.26 377.664 1074 376.945 1074 376.059 1074 375.173 1073.26 374.455 1072.36 374.455L1068.22 374.455 1064.51 371.837C1063.82 371.222 1062.89 370.924 1061.96 371.017 1060.26 371.209 1058.98 372.629 1059 374.304L1059 383.165C1059 384.937 1060.47 386.373 1062.29 386.373L1069.8 386.373 1069.8 394.396C1069.8 395.282 1070.53 396 1071.44 396 1072.35 396 1073.08 395.282 1073.08 394.396L1073.08 384.769C1073.08 383.883 1072.35 383.165 1071.44 383.165L1065.57 383.165 1065.57 376.545Z" fill="#4472C4" fill-rule="evenodd"/><path d="M1065 366.5C1065 368.433 1063.66 370 1062 370 1060.34 370 1059 368.433 1059 366.5 1059 364.567 1060.34 363 1062 363 1063.66 363 1065 364.567 1065 366.5Z" fill="#4472C4" fill-rule="evenodd"/><path d="M1072 422C1072 430.284 1065.28 437 1057 437 1048.72 437 1042 430.284 1042 422 1042 413.716 1048.72 407 1057 407 1065.28 407 1072 413.716 1072 422Z" fill="#203864" fill-rule="evenodd"/><path d="M1161 422C1161 430.284 1154.28 437 1146 437 1137.72 437 1131 430.284 1131 422 1131 413.716 1137.72 407 1146 407 1154.28 407 1161 413.716 1161 422Z" fill="#203864" fill-rule="evenodd"/><path d="M1084.62 384.778 1084.62 362.444 1110.31 362.444C1112.38 362.444 1114.25 363.189 1115.56 364.678L1135.81 384.778 1084.62 384.778ZM1077.12 384.778 1029.69 384.778 1049.94 364.678C1051.44 363.189 1053.31 362.444 1055.19 362.444L1077.12 362.444 1077.12 384.778ZM1165.25 384.778 1149.69 384.778C1147.62 384.778 1145.75 384.033 1144.44 382.544L1120.81 359.281C1118 356.489 1114.25 355 1110.12 355L1055.19 355C1051.25 355 1047.31 356.489 1044.5 359.281L1021.25 382.544C1019.75 384.033 1019 385.894 1019 387.942L1019 407.111C1019 415.3 1025.75 422 1034 422L1035.88 422C1035.88 410.647 1045.06 401.528 1056.5 401.528 1067.94 401.528 1077.12 410.647 1077.12 422L1125.88 422C1125.88 410.647 1135.06 401.528 1146.5 401.528 1157.94 401.528 1167.12 410.647 1167.12 422L1176.5 422C1180.63 422 1184 418.65 1184 414.556L1184 403.389C1184 393.153 1175.56 384.778 1165.25 384.778Z" fill="#203864" fill-rule="evenodd"/><g clip-path="url(#clip31)"><g clip-path="url(#clip32)"><g clip-path="url(#clip33)"><path d="M770.501 317.771C766.785 317.771 763.772 320.784 763.772 324.5 763.772 328.216 766.785 331.229 770.501 331.229 774.217 331.229 777.23 328.216 777.23 324.5 777.23 320.784 774.217 317.771 770.501 317.771ZM771.242 329.759 771.652 326.891C770.926 327.246 770.076 327.246 769.35 326.891L769.76 329.759C766.857 329.352 764.833 326.669 765.24 323.766 765.274 323.525 765.324 323.287 765.39 323.053L767.853 324.669C767.85 324.613 767.845 324.557 767.845 324.5 767.845 323.736 768.175 323.01 768.75 322.508L766.009 321.669C767.569 319.188 770.845 318.442 773.326 320.002 774 320.426 774.569 320.995 774.993 321.669L772.252 322.508C772.827 323.01 773.157 323.736 773.157 324.5 773.157 324.557 773.152 324.613 773.149 324.669L775.612 323.053C776.412 325.873 774.775 328.808 771.955 329.609 771.721 329.675 771.483 329.726 771.242 329.759Z" fill="#4472C4"/><path d="M770.501 322.552C769.425 322.552 768.553 323.424 768.553 324.5 768.553 325.576 769.425 326.448 770.501 326.448 771.577 326.448 772.449 325.576 772.449 324.5 772.448 323.425 771.576 322.553 770.501 322.552ZM770.501 325.385C770.012 325.385 769.616 324.989 769.616 324.5 769.616 324.011 770.012 323.615 770.501 323.615 770.99 323.615 771.386 324.011 771.386 324.5 771.386 324.989 770.99 325.385 770.501 325.385Z" fill="#4472C4"/></g></g></g><path d="M757.929 332.8 751.143 332.8 751.143 323.08C751.143 322.484 750.663 322 750.071 322 749.48 322 749 322.484 749 323.08L749 333.88C749 334.476 749.48 334.96 750.071 334.96L752.929 334.96 752.929 337.84 750.786 337.84 750.786 340 757.214 340 757.214 337.84 755.071 337.84 755.071 334.96 757.929 334.96C758.52 334.96 759 334.476 759 333.88 759 333.284 758.52 332.8 757.929 332.8Z" fill="#4472C4" fill-rule="evenodd"/><path d="M758.179 324.089C758.398 324.243 758.66 324.328 758.93 324.331L762.685 324.331C763.411 324.331 764 323.756 764 323.047 764 322.339 763.411 321.764 762.685 321.764L759.373 321.764 756.41 319.67C755.856 319.178 755.115 318.939 754.37 319.013 753.007 319.167 751.983 320.303 752 321.643L752 328.732C752 330.149 753.177 331.299 754.629 331.299L760.639 331.299 760.639 337.716C760.639 338.425 761.227 339 761.953 339 762.679 339 763.268 338.425 763.268 337.716L763.268 330.015C763.268 329.306 762.679 328.732 761.953 328.732L757.258 328.732 757.258 323.436Z" fill="#4472C4" fill-rule="evenodd"/><path d="M757 315.5C757 316.881 755.881 318 754.5 318 753.119 318 752 316.881 752 315.5 752 314.119 753.119 313 754.5 313 755.881 313 757 314.119 757 315.5Z" fill="#4472C4" fill-rule="evenodd"/><path d="M733 357.5C733 363.851 727.851 369 721.5 369 715.149 369 710 363.851 710 357.5 710 351.149 715.149 346 721.5 346 727.851 346 733 351.149 733 357.5Z" fill="#203864" fill-rule="evenodd"/><path d="M802 357.5C802 363.851 796.851 369 790.5 369 784.149 369 779 363.851 779 357.5 779 351.149 784.149 346 790.5 346 796.851 346 802 351.149 802 357.5Z" fill="#203864" fill-rule="evenodd"/><path d="M743.511 329.111 743.511 311.778 763.283 311.778C764.87 311.778 766.314 312.356 767.324 313.511L782.91 329.111 743.511 329.111ZM737.739 329.111 701.226 329.111 716.812 313.511C717.967 312.356 719.41 311.778 720.853 311.778L737.739 311.778 737.739 329.111ZM805.568 329.111 793.59 329.111C792.002 329.111 790.559 328.533 789.549 327.378L771.365 309.322C769.2 307.156 766.314 306 763.139 306L720.853 306C717.823 306 714.792 307.156 712.627 309.322L694.732 327.378C693.577 328.533 693 329.978 693 331.567L693 346.444C693 352.8 698.195 358 704.545 358L705.989 358C705.989 349.189 713.06 342.111 721.864 342.111 730.667 342.111 737.739 349.189 737.739 358L775.261 358C775.261 349.189 782.333 342.111 791.136 342.111 799.94 342.111 807.011 349.189 807.011 358L814.227 358C817.402 358 820 355.4 820 352.222L820 343.556C820 335.611 813.506 329.111 805.568 329.111Z" fill="#203864" fill-rule="evenodd"/><path d="M107 371.5C107 375.642 103.642 379 99.5 379 95.3579 379 92 375.642 92 371.5 92 367.358 95.3579 364 99.5 364 103.642 364 107 367.358 107 371.5Z" fill="#203864" fill-rule="evenodd"/><path d="M153 371.5C153 375.642 149.642 379 145.5 379 141.358 379 138 375.642 138 371.5 138 367.358 141.358 364 145.5 364 149.642 364 153 367.358 153 371.5Z" fill="#203864" fill-rule="evenodd"/><path d="M114.409 352.556 114.409 340.889 127.486 340.889C128.536 340.889 129.491 341.278 130.159 342.056L140.468 352.556 114.409 352.556ZM110.591 352.556 86.4409 352.556 96.75 342.056C97.5136 341.278 98.4682 340.889 99.4227 340.889L110.591 340.889 110.591 352.556ZM155.455 352.556 147.532 352.556C146.482 352.556 145.527 352.167 144.859 351.389L132.832 339.236C131.4 337.778 129.491 337 127.391 337L99.4227 337C97.4182 337 95.4137 337.778 93.9818 339.236L82.1455 351.389C81.3818 352.167 81 353.139 81 354.208L81 364.222C81 368.5 84.4364 372 88.6364 372L89.5909 372C89.5909 366.069 94.2682 361.306 100.091 361.306 105.914 361.306 110.591 366.069 110.591 372L135.409 372C135.409 366.069 140.086 361.306 145.909 361.306 151.732 361.306 156.409 366.069 156.409 372L161.182 372C163.282 372 165 370.25 165 368.111L165 362.278C165 356.931 160.705 352.556 155.455 352.556Z" fill="#203864" fill-rule="evenodd"/><g clip-path="url(#clip34)"><g clip-path="url(#clip35)"><g clip-path="url(#clip36)"><path d="M22.8154 25.5 11.1279 25.5C9.66092 25.5 8.47167 26.6893 8.47167 28.1562 8.47167 29.6232 9.66092 30.8125 11.1279 30.8125L22.8154 30.8125C24.2824 30.8125 25.4717 29.6232 25.4717 28.1562 25.4717 26.6893 24.2824 25.5 22.8154 25.5ZM11.8362 29.2188C11.2494 29.2188 10.7737 28.7431 10.7737 28.1562 10.7737 27.5694 11.2494 27.0938 11.8362 27.0938 12.4231 27.0938 12.8987 27.5694 12.8987 28.1562 12.8987 28.7431 12.4231 29.2188 11.8362 29.2188ZM16.9717 29.2188C16.3848 29.2188 15.9092 28.7431 15.9092 28.1562 15.9092 27.5694 16.3848 27.0938 16.9717 27.0938 17.5585 27.0938 18.0342 27.5694 18.0342 28.1562 18.0342 28.7431 17.5585 29.2188 16.9717 29.2188ZM22.1071 29.2188C21.5203 29.2188 21.0446 28.7431 21.0446 28.1562 21.0446 27.5694 21.5203 27.0938 22.1071 27.0938 22.6939 27.0938 23.1696 27.5694 23.1696 28.1562 23.1696 28.7431 22.6939 29.2188 22.1071 29.2188Z" fill="#4472C4" transform="matrix(1.02941 0 0 1 540 311)"/><path d="M19.419 9.91667C19.419 10.2101 19.1811 10.4479 18.8877 10.4479 18.5943 10.4479 18.3565 10.2101 18.3565 9.91667 18.3565 9.62327 18.5943 9.38542 18.8877 9.38542 19.1811 9.38542 19.419 9.62327 19.419 9.91667Z" fill="#4472C4" transform="matrix(1.02941 0 0 1 540 311)"/><path d="M20.0494 6.375 17.7083 6.375 17.7083 4.76354C18.3859 4.37233 18.6181 3.50592 18.2269 2.82834 17.8357 2.15076 16.9693 1.9186 16.2917 2.3098 15.6141 2.70101 15.3819 3.56741 15.7731 4.24501 15.8975 4.46037 16.0763 4.63919 16.2917 4.76354L16.2917 6.375 13.9506 6.375C13.0928 6.37695 12.3978 7.07193 12.3958 7.92979L12.3958 11.9035C12.3978 12.7614 13.0928 13.4564 13.9506 13.4583L20.0494 13.4583C20.9072 13.4564 21.6022 12.7614 21.6042 11.9035L21.6042 7.92979C21.6022 7.07193 20.9072 6.37695 20.0494 6.375ZM15.2292 10.9792C14.6423 10.9792 14.1667 10.5035 14.1667 9.91667 14.1667 9.32985 14.6423 8.85417 15.2292 8.85417 15.816 8.85417 16.2917 9.32985 16.2917 9.91667 16.2917 10.5035 15.816 10.9792 15.2292 10.9792ZM18.7708 10.9792C18.184 10.9792 17.7083 10.5035 17.7083 9.91667 17.7083 9.32985 18.184 8.85417 18.7708 8.85417 19.3577 8.85417 19.8333 9.32985 19.8333 9.91667 19.8333 10.5035 19.3577 10.9792 18.7708 10.9792Z" fill="#4472C4" transform="matrix(1.02941 0 0 1 540 311)"/><path d="M15.8773 9.91667C15.8773 10.2101 15.6394 10.4479 15.346 10.4479 15.0526 10.4479 14.8148 10.2101 14.8148 9.91667 14.8148 9.62327 15.0526 9.38542 15.346 9.38542 15.6394 9.38542 15.8773 9.62327 15.8773 9.91667Z" fill="#4472C4" transform="matrix(1.02941 0 0 1 540 311)"/><path d="M26.2083 20.8321 26.2083 17.8819C26.2083 17.0036 25.4964 16.2917 24.6181 16.2917L22.6667 16.2917 22.6667 14.5208 11.3333 14.5208 11.3333 16.6458 8.67354 16.6458C8.5777 16.6458 8.5 16.5681 8.5 16.4723L8.5 13.5363C9.71748 13.1767 10.413 11.8983 10.0534 10.6808 9.95701 10.3544 9.78934 10.0535 9.5625 9.79979L8.5 10.7419C8.64861 10.9035 8.73301 11.1138 8.73729 11.3333 8.73464 11.8223 8.33606 12.2166 7.84706 12.2139 7.35806 12.2112 6.96384 11.8127 6.96649 11.3237 6.96763 11.1125 7.04423 10.9087 7.1825 10.749L6.12 9.8175C5.28526 10.7765 5.38602 12.2306 6.34504 13.0653 6.562 13.2542 6.8124 13.4007 7.08333 13.4973L7.08333 16.4723C7.08333 17.3506 7.79528 18.0625 8.67354 18.0625L11.3333 18.0625 11.3333 24.4375 22.6667 24.4375 22.6667 17.7083 24.6181 17.7083C24.714 17.7083 24.7917 17.786 24.7917 17.8819L24.7917 20.8321C23.582 21.2234 22.9186 22.5213 23.3099 23.731 23.4079 24.0337 23.5675 24.3129 23.7787 24.5508L24.8412 23.6088C24.6947 23.4481 24.6138 23.2383 24.6146 23.0208 24.615 22.5318 25.0117 22.1357 25.5007 22.1362 25.9897 22.1366 26.3858 22.5333 26.3854 23.0223 26.3852 23.2368 26.3072 23.4439 26.1658 23.6052L27.2283 24.5367C28.0663 23.5831 27.9726 22.1308 27.0191 21.2928 26.7832 21.0854 26.5072 20.9286 26.2083 20.8321ZM21.25 19.4792 20.2654 19.4792C20.2312 19.4853 20.1986 19.4986 20.1698 19.5181L19.086 20.6267 18.2608 18.6717 16.7202 21.8592 15.64 17.7083 14.8077 19.4792 13.1042 19.4792 13.1042 18.7708 14.3579 18.7708 15.8313 15.6365 16.9221 19.8085 18.3069 16.9752 19.3269 19.3906 19.681 19.0365C19.8366 18.8791 20.0446 18.7845 20.2654 18.7708L21.25 18.7708Z" fill="#4472C4" transform="matrix(1.02941 0 0 1 540 311)"/></g></g></g><path d="M527.929 331.8 521.143 331.8 521.143 322.08C521.143 321.484 520.663 321 520.071 321 519.48 321 519 321.484 519 322.08L519 332.88C519 333.476 519.48 333.96 520.071 333.96L522.929 333.96 522.929 336.84 520.786 336.84 520.786 339 527.214 339 527.214 336.84 525.071 336.84 525.071 333.96 527.929 333.96C528.52 333.96 529 333.476 529 332.88 529 332.284 528.52 331.8 527.929 331.8Z" fill="#4472C4" fill-rule="evenodd"/><path d="M528.664 324.089C528.864 324.243 529.105 324.328 529.352 324.331L532.795 324.331C533.461 324.331 534 323.756 534 323.047 534 322.339 533.461 321.764 532.795 321.764L529.758 321.764 527.042 319.67C526.535 319.178 525.855 318.939 525.173 319.013 523.923 319.167 522.985 320.303 523 321.643L523 328.732C523 330.149 524.079 331.299 525.41 331.299L530.919 331.299 530.919 337.716C530.919 338.425 531.458 339 532.124 339 532.789 339 533.329 338.425 533.329 337.716L533.329 330.015C533.329 329.306 532.789 328.732 532.124 328.732L527.82 328.732 527.82 323.436Z" fill="#4472C4" fill-rule="evenodd"/><path d="M528 315.5C528 316.881 526.881 318 525.5 318 524.119 318 523 316.881 523 315.5 523 314.119 524.119 313 525.5 313 526.881 313 528 314.119 528 315.5Z" fill="#4472C4" fill-rule="evenodd"/><path d="M532 358.5C532 364.851 526.851 370 520.5 370 514.149 370 509 364.851 509 358.5 509 352.149 514.149 347 520.5 347 526.851 347 532 352.149 532 358.5Z" fill="#203864" fill-rule="evenodd"/><path d="M602 358.5C602 364.851 596.851 370 590.5 370 584.149 370 579 364.851 579 358.5 579 352.149 584.149 347 590.5 347 596.851 347 602 352.149 602 358.5Z" fill="#203864" fill-rule="evenodd"/><path d="M542.511 330.111 542.511 312.778 562.283 312.778C563.87 312.778 565.314 313.356 566.324 314.511L581.91 330.111 542.511 330.111ZM536.739 330.111 500.226 330.111 515.812 314.511C516.967 313.356 518.41 312.778 519.853 312.778L536.739 312.778 536.739 330.111ZM604.568 330.111 592.59 330.111C591.002 330.111 589.559 329.533 588.549 328.378L570.365 310.322C568.2 308.156 565.314 307 562.139 307L519.853 307C516.823 307 513.792 308.156 511.627 310.322L493.732 328.378C492.577 329.533 492 330.978 492 332.567L492 347.444C492 353.8 497.195 359 503.545 359L504.989 359C504.989 350.189 512.06 343.111 520.864 343.111 529.667 343.111 536.739 350.189 536.739 359L574.261 359C574.261 350.189 581.333 343.111 590.136 343.111 598.94 343.111 606.011 350.189 606.011 359L613.227 359C616.402 359 619 356.4 619 353.222L619 344.556C619 336.611 612.506 330.111 604.568 330.111Z" fill="#203864" fill-rule="evenodd"/><path d="M242 372C242 376.418 238.642 380 234.5 380 230.358 380 227 376.418 227 372 227 367.582 230.358 364 234.5 364 238.642 364 242 367.582 242 372Z" fill="#4472C4" fill-rule="evenodd"/><path d="M288 372C288 376.418 284.642 380 280.5 380 276.358 380 273 376.418 273 372 273 367.582 276.358 364 280.5 364 284.642 364 288 367.582 288 372Z" fill="#4472C4" fill-rule="evenodd"/><path d="M249.409 353.111 249.409 341.778 262.486 341.778C263.536 341.778 264.491 342.156 265.159 342.911L275.468 353.111 249.409 353.111ZM245.591 353.111 221.441 353.111 231.75 342.911C232.514 342.156 233.468 341.778 234.423 341.778L245.591 341.778 245.591 353.111ZM290.455 353.111 282.532 353.111C281.482 353.111 280.527 352.733 279.859 351.978L267.832 340.172C266.4 338.756 264.491 338 262.391 338L234.423 338C232.418 338 230.414 338.756 228.982 340.172L217.145 351.978C216.382 352.733 216 353.678 216 354.717L216 364.444C216 368.6 219.436 372 223.636 372L224.591 372C224.591 366.239 229.268 361.611 235.091 361.611 240.914 361.611 245.591 366.239 245.591 372L270.409 372C270.409 366.239 275.086 361.611 280.909 361.611 286.732 361.611 291.409 366.239 291.409 372L296.182 372C298.282 372 300 370.3 300 368.222L300 362.556C300 357.361 295.705 353.111 290.455 353.111Z" fill="#4472C4" fill-rule="evenodd"/></g></svg>