<svg width="1280" height="720" xmlns="http://www.w3.org/2000/svg" xmlns:xlink="http://www.w3.org/1999/xlink" overflow="hidden"><defs><clipPath id="clip0"><rect x="0" y="0" width="1280" height="720"/></clipPath><clipPath id="clip1"><rect x="299" y="326" width="28" height="28"/></clipPath><clipPath id="clip2"><rect x="299" y="326" width="28" height="28"/></clipPath><clipPath id="clip3"><rect x="299" y="326" width="28" height="28"/></clipPath><clipPath id="clip4"><rect x="176" y="464" width="100" height="112"/></clipPath><clipPath id="clip5"><rect x="176" y="464" width="100" height="112"/></clipPath><clipPath id="clip6"><rect x="176" y="464" width="100" height="112"/></clipPath><clipPath id="clip7"><rect x="157" y="446" width="132" height="148"/></clipPath><clipPath id="clip8"><rect x="157" y="446" width="132" height="148"/></clipPath><clipPath id="clip9"><rect x="157" y="446" width="132" height="148"/></clipPath><clipPath id="clip10"><rect x="942" y="354" width="133" height="138"/></clipPath><clipPath id="clip11"><rect x="942" y="354" width="133" height="138"/></clipPath><clipPath id="clip12"><rect x="942" y="354" width="133" height="138"/></clipPath><clipPath id="clip13"><rect x="766" y="478" width="34" height="34"/></clipPath><clipPath id="clip14"><rect x="766" y="478" width="34" height="34"/></clipPath><clipPath id="clip15"><rect x="766" y="478" width="34" height="34"/></clipPath></defs><g clip-path="url(#clip0)"><rect x="0" y="0" width="1280" height="720" fill="#FFFFFF"/><path d="M1 172.003C1 115.668 46.6681 70 103.003 70L1112 70C1168.33 70 1214 115.668 1214 172.003L1214 579.997C1214 636.332 1168.33 682 1112 682L103.003 682C46.6681 682 1 636.332 1 579.997Z" stroke="#4472C4" stroke-width="8" stroke-miterlimit="8" fill="none" fill-rule="evenodd"/><text fill="#203864" font-family="Calibri,Calibri_MSFontService,sans-serif" font-weight="700" font-size="59" transform="translate(490.952 152)">Obstacles</text><path d="M1131.25 559 1047.87 483.25 1085.75 483.25C1058.37 349.47 962.713 256 853.188 256L928.937 256C1038.46 256 1134.12 349.47 1161.5 483.25L1199.37 483.25Z" fill="#203864" fill-rule="evenodd"/><path d="M891.063 259.791C774.509 283.271 688.75 410.103 688.75 559L613 559C613 391.658 720.536 256 853.187 256 865.872 256 878.536 257.268 891.062 259.791Z" fill="#1A2D50" fill-rule="evenodd"/><path d="M548.25 559 464.873 483.25 502.748 483.25C475.367 349.47 379.713 256 270.188 256L345.937 256C455.462 256 551.117 349.47 578.498 483.25L616.373 483.25Z" fill="#203864" fill-rule="evenodd"/><path d="M308.063 259.791C191.509 283.271 105.75 410.103 105.75 559L30 559C30 391.658 137.536 256 270.187 256 282.872 256 295.537 257.268 308.062 259.791Z" fill="#1A2D50" fill-rule="evenodd"/><text fill="#001628" font-family="Calibri,Calibri_MSFontService,sans-serif" font-weight="400" font-size="43" transform="translate(40.2152 235)">Insufficient knowledge</text><path d="M0 0 549.18 0.000209974" stroke="#000000" stroke-width="0.666667" stroke-miterlimit="8" fill="none" fill-rule="evenodd" transform="matrix(1 0 0 -1 42.5001 245.5)"/><text fill="#001628" font-family="Calibri,Calibri_MSFontService,sans-serif" font-weight="400" font-size="43" transform="translate(600.761 237)">Can they go everywhere?</text><path d="M0 0 549.18 0.000209974" stroke="#000000" stroke-width="0.666667" stroke-miterlimit="8" fill="none" fill-rule="evenodd" transform="matrix(1 0 0 -1 602.5 245.5)"/><g clip-path="url(#clip1)"><g clip-path="url(#clip2)"><g clip-path="url(#clip3)"><path d="M317.789 347 308.164 347C306.956 347 305.977 347.979 305.977 349.188 305.977 350.396 306.956 351.375 308.164 351.375L317.789 351.375C318.997 351.375 319.977 350.396 319.977 349.188 319.977 347.979 318.997 347 317.789 347ZM308.747 350.062C308.264 350.062 307.872 349.671 307.872 349.188 307.872 348.704 308.264 348.312 308.747 348.312 309.231 348.312 309.622 348.704 309.622 349.188 309.622 349.671 309.231 350.062 308.747 350.062ZM312.977 350.062C312.493 350.062 312.102 349.671 312.102 349.188 312.102 348.704 312.493 348.312 312.977 348.312 313.46 348.312 313.852 348.704 313.852 349.188 313.852 349.671 313.46 350.062 312.977 350.062ZM317.206 350.062C316.723 350.062 316.331 349.671 316.331 349.188 316.331 348.704 316.723 348.312 317.206 348.312 317.689 348.312 318.081 348.704 318.081 349.188 318.081 349.671 317.689 350.062 317.206 350.062Z" fill="#4472C4"/><path d="M314.992 334.167C314.992 334.408 314.796 334.604 314.555 334.604 314.313 334.604 314.117 334.408 314.117 334.167 314.117 333.925 314.313 333.729 314.555 333.729 314.796 333.729 314.992 333.925 314.992 334.167Z" fill="#4472C4"/><path d="M315.511 331.25 313.583 331.25 313.583 329.923C314.141 329.601 314.333 328.887 314.01 328.329 313.688 327.771 312.975 327.58 312.417 327.902 311.859 328.224 311.667 328.938 311.99 329.496 312.092 329.673 312.239 329.821 312.417 329.923L312.417 331.25 310.489 331.25C309.782 331.252 309.21 331.824 309.208 332.53L309.208 335.803C309.21 336.509 309.782 337.082 310.489 337.083L315.511 337.083C316.218 337.082 316.79 336.509 316.792 335.803L316.792 332.53C316.79 331.824 316.218 331.252 315.511 331.25ZM311.542 335.042C311.058 335.042 310.667 334.65 310.667 334.167 310.667 333.683 311.058 333.292 311.542 333.292 312.025 333.292 312.417 333.683 312.417 334.167 312.417 334.65 312.025 335.042 311.542 335.042ZM314.458 335.042C313.975 335.042 313.583 334.65 313.583 334.167 313.583 333.683 313.975 333.292 314.458 333.292 314.942 333.292 315.333 333.683 315.333 334.167 315.333 334.65 314.942 335.042 314.458 335.042Z" fill="#4472C4"/><path d="M312.075 334.167C312.075 334.408 311.88 334.604 311.638 334.604 311.396 334.604 311.2 334.408 311.2 334.167 311.2 333.925 311.396 333.729 311.638 333.729 311.88 333.729 312.075 333.925 312.075 334.167Z" fill="#4472C4"/><path d="M320.583 343.156 320.583 340.726C320.583 340.003 319.997 339.417 319.274 339.417L317.667 339.417 317.667 337.958 308.333 337.958 308.333 339.708 306.143 339.708C306.064 339.708 306 339.644 306 339.565L306 337.147C307.003 336.851 307.575 335.799 307.279 334.796 307.2 334.527 307.062 334.279 306.875 334.07L306 334.846C306.122 334.979 306.192 335.153 306.195 335.333 306.193 335.736 305.865 336.061 305.462 336.059 305.06 336.056 304.735 335.728 304.737 335.325 304.738 335.151 304.801 334.984 304.915 334.852L304.04 334.085C303.353 334.875 303.436 336.072 304.225 336.76 304.404 336.915 304.61 337.036 304.833 337.115L304.833 339.565C304.833 340.289 305.42 340.875 306.143 340.875L308.333 340.875 308.333 346.125 317.667 346.125 317.667 340.583 319.274 340.583C319.353 340.583 319.417 340.647 319.417 340.726L319.417 343.156C318.42 343.478 317.874 344.547 318.196 345.543 318.277 345.792 318.409 346.022 318.582 346.218L319.457 345.443C319.337 345.31 319.27 345.137 319.271 344.958 319.271 344.556 319.598 344.229 320.001 344.23 320.403 344.23 320.73 344.557 320.729 344.96 320.729 345.136 320.665 345.307 320.548 345.44L321.423 346.207C322.113 345.421 322.036 344.225 321.251 343.535 321.057 343.364 320.829 343.235 320.583 343.156ZM316.5 342.042 315.689 342.042C315.661 342.047 315.634 342.058 315.61 342.074L314.718 342.987 314.038 341.377 312.77 344.002 311.88 340.583 311.195 342.042 309.792 342.042 309.792 341.458 310.824 341.458 312.038 338.877 312.936 342.313 314.076 339.98 314.916 341.969 315.208 341.677C315.336 341.547 315.507 341.47 315.689 341.458L316.5 341.458Z" fill="#4472C4"/></g></g></g><path d="M289.143 343 283.714 343 283.714 334.9C283.714 334.403 283.331 334 282.857 334 282.384 334 282 334.403 282 334.9L282 343.9C282 344.397 282.384 344.8 282.857 344.8L285.143 344.8 285.143 347.2 283.429 347.2 283.429 349 288.571 349 288.571 347.2 286.857 347.2 286.857 344.8 289.143 344.8C289.616 344.8 290 344.397 290 343.9 290 343.403 289.616 343 289.143 343Z" fill="#4472C4" fill-rule="evenodd"/><path d="M289.634 336.071C289.798 336.194 289.995 336.262 290.197 336.265L293.014 336.265C293.559 336.265 294 335.805 294 335.238 294 334.671 293.559 334.211 293.014 334.211L290.53 334.211 288.307 332.536C287.892 332.142 287.336 331.951 286.778 332.011 285.755 332.134 284.988 333.042 285 334.114L285 339.785C285 340.92 285.883 341.839 286.972 341.839L291.479 341.839 291.479 346.973C291.479 347.54 291.92 348 292.465 348 293.009 348 293.451 347.54 293.451 346.973L293.451 340.812C293.451 340.245 293.009 339.785 292.465 339.785L288.944 339.785 288.944 335.549Z" fill="#4472C4" fill-rule="evenodd"/><path d="M289 330C289 331.105 288.105 332 287 332 285.895 332 285 331.105 285 330 285 328.895 285.895 328 287 328 288.105 328 289 328.895 289 330Z" fill="#4472C4" fill-rule="evenodd"/><path d="M293 364.5C293 369.747 288.747 374 283.5 374 278.253 374 274 369.747 274 364.5 274 359.253 278.253 355 283.5 355 288.747 355 293 359.253 293 364.5Z" fill="#203864" fill-rule="evenodd"/><path d="M349 364.5C349 369.747 344.747 374 339.5 374 334.253 374 330 369.747 330 364.5 330 359.253 334.253 355 339.5 355 344.747 355 349 359.253 349 364.5Z" fill="#203864" fill-rule="evenodd"/><path d="M300.966 341.667 300.966 327.667 317.001 327.667C318.289 327.667 319.459 328.133 320.278 329.067L332.919 341.667 300.966 341.667ZM296.284 341.667 266.672 341.667 279.312 329.067C280.249 328.133 281.419 327.667 282.59 327.667L296.284 327.667 296.284 341.667ZM351.295 341.667 341.581 341.667C340.293 341.667 339.123 341.2 338.303 340.267L323.556 325.683C321.8 323.933 319.459 323 316.884 323L282.59 323C280.132 323 277.674 323.933 275.918 325.683L261.405 340.267C260.468 341.2 260 342.367 260 343.65L260 355.667C260 360.8 264.214 365 269.364 365L270.534 365C270.534 357.883 276.269 352.167 283.409 352.167 290.549 352.167 296.284 357.883 296.284 365L326.716 365C326.716 357.883 332.451 352.167 339.591 352.167 346.731 352.167 352.466 357.883 352.466 365L358.318 365C360.893 365 363 362.9 363 360.333L363 353.333C363 346.917 357.733 341.667 351.295 341.667Z" fill="#203864" fill-rule="evenodd"/><g clip-path="url(#clip4)"><g clip-path="url(#clip5)"><g clip-path="url(#clip6)"><path d="M20.8333 51.3542 20.8333 63.5417C20.8333 69.2708 33.8542 75 50 75 66.1458 75 79.1667 69.2708 79.1667 63.5417L79.1667 51.3542 50 61.6667 20.8333 51.3542Z" fill="#203864" transform="matrix(1 0 0 1.12 176 464)"/><path d="M50 57.1875 95.4167 41.25 50 25 4.58333 41.25 10.4167 43.3333 10.4167 62.5C10.4167 63.6458 11.3542 64.5833 12.5 64.5833 13.6458 64.5833 14.5833 63.6458 14.5833 62.5L14.5833 44.7917 50 57.1875Z" fill="#203864" transform="matrix(1 0 0 1.12 176 464)"/></g></g></g><path d="M230.965 333.241C228.65 317.758 240.573 303.499 257.596 301.392 264.494 300.539 271.508 301.815 277.514 305.016 283.879 294.103 298.752 289.956 310.734 295.752 312.829 296.766 314.752 298.051 316.443 299.566 321.4 290.521 333.474 286.846 343.412 291.358 346.162 292.607 348.561 294.413 350.425 296.638 358.415 288.084 372.533 287.027 381.959 294.278 385.921 297.325 388.591 301.528 389.512 306.167 402.603 309.416 410.325 321.722 406.761 333.654 406.461 334.658 406.085 335.64 405.636 336.596 416.135 349.029 413.564 366.849 399.895 376.398 395.64 379.371 390.614 381.295 385.302 381.986 385.184 395.362 373.158 406.119 358.441 406.011 353.524 405.975 348.714 404.704 344.543 402.337 339.565 417.333 322.202 425.809 305.761 421.269 298.871 419.366 292.918 415.342 288.917 409.883 272.084 419.119 250.235 414.15 240.116 398.786 239.989 398.593 239.863 398.398 239.74 398.202 228.724 399.375 218.745 392.224 217.452 382.23 216.763 376.903 218.696 371.571 222.736 367.655 213.197 362.547 209.993 351.335 215.579 342.612 218.802 337.58 224.454 334.253 230.798 333.655Z" stroke="#203864" stroke-width="5.6" stroke-miterlimit="8" fill="none" fill-rule="evenodd"/><path d="M210.758 485.198C210.758 487.238 209.104 488.892 207.064 488.892 205.023 488.892 203.369 487.238 203.369 485.198 203.369 483.157 205.023 481.503 207.064 481.503 209.104 481.503 210.758 483.157 210.758 485.198Z" stroke="#203864" stroke-width="5.6" stroke-miterlimit="8" fill="none" fill-rule="evenodd"/><path d="M232.211 463.354C232.211 467.435 228.902 470.743 224.822 470.743 220.741 470.743 217.433 467.435 217.433 463.354 217.433 459.273 220.741 455.965 224.822 455.965 228.902 455.965 232.211 459.273 232.211 463.354Z" stroke="#203864" stroke-width="5.6" stroke-miterlimit="8" fill="none" fill-rule="evenodd"/><path d="M258.324 435.776C258.324 441.898 253.361 446.86 247.24 446.86 241.119 446.86 236.157 441.898 236.157 435.776 236.157 429.655 241.119 424.693 247.24 424.693 253.361 424.693 258.324 429.655 258.324 435.776Z" stroke="#203864" stroke-width="5.6" stroke-miterlimit="8" fill="none" fill-rule="evenodd"/><path d="M234.618 369.591C230.546 369.881 226.474 369.025 222.949 367.137M244.914 396.444C243.276 397.037 241.56 397.432 239.808 397.618M288.906 409.347C287.674 407.666 286.643 405.87 285.829 403.99M345.791 395.988C345.61 397.981 345.198 399.952 344.563 401.866M370.215 359.669C379.448 363.756 385.275 372.303 385.192 381.637M405.542 336.27C404.046 339.449 401.764 342.268 398.873 344.508M389.539 305.705C389.794 306.989 389.911 308.291 389.891 309.595M346.947 301.167C347.816 299.372 348.967 297.701 350.364 296.206M314.992 303.531C315.347 302.048 315.902 300.611 316.647 299.253M277.491 304.985C279.664 306.143 281.675 307.537 283.479 309.136M232.011 337.61C231.537 336.181 231.187 334.721 230.966 333.242" stroke="#203864" stroke-width="5.6" stroke-miterlimit="8" fill="none" fill-rule="evenodd"/><g clip-path="url(#clip7)"><g clip-path="url(#clip8)"><g clip-path="url(#clip9)"><path d="M66 13.75C37.125 13.75 13.75 37.125 13.75 66 13.75 94.875 37.125 118.25 66 118.25 94.875 118.25 118.25 94.875 118.25 66 118.25 37.125 94.875 13.75 66 13.75ZM30.25 66C30.25 59.125 32.175 52.6625 35.6125 47.3L84.8375 96.525C79.3375 99.825 72.875 101.75 66 101.75 46.3375 101.75 30.25 85.6625 30.25 66ZM96.3875 84.7 47.3 35.6125C52.6625 32.175 59.125 30.25 66 30.25 85.6625 30.25 101.75 46.3375 101.75 66 101.75 72.875 99.825 79.3375 96.3875 84.7Z" fill="#4472C4" transform="matrix(1 0 0 1.12121 157 446)"/></g></g></g><g clip-path="url(#clip10)"><g clip-path="url(#clip11)"><g clip-path="url(#clip12)"><path d="M116.707 118.162 93.7234 81.3794C93.0532 80.3006 91.6352 79.9693 90.5562 80.6397 90.2562 80.8262 90.003 81.0793 89.8166 81.3794L83.125 92.1995 97.5333 115.599C98.7828 117.464 99.0513 119.818 98.2537 121.917L114.588 121.917C115.476 121.945 116.304 121.474 116.735 120.698 117.184 119.937 117.184 118.992 116.735 118.231Z" fill="#203864" transform="matrix(1 0 0 1.03759 942 354)"/><path d="M93.6403 118.121 56.9683 58.4784C56.1727 57.392 54.6469 57.1561 53.5605 57.9517 53.3589 58.0992 53.1813 58.2769 53.0337 58.4784L16.3756 118.121C15.57 119.132 15.7369 120.605 16.7484 121.411 17.1995 121.77 17.7673 121.95 18.3429 121.917L91.673 121.917C92.9734 121.946 94.0514 120.916 94.0807 119.615 94.0922 119.105 93.9376 118.605 93.6403 118.19ZM60.6951 80.9222 55.001 85.9928 49.3208 80.9222 42.3106 85.2031 55.001 64.4219 67.6915 85.2031Z" fill="#203864" transform="matrix(1 0 0 1.03759 942 354)"/><path d="M30.0081 44.0562C30.2849 42.7401 30.8477 41.5008 31.6568 40.4265 32.875 38.812 34.5797 37.6319 36.5196 37.0599 37.7572 33.9261 40.4464 31.5937 43.7237 30.8117 44.5123 30.6112 45.321 30.4997 46.1344 30.4792L46.5916 30.4792C46.2578 28.4828 45.1406 26.7022 43.4882 25.5332 41.4693 24.1155 38.8918 23.7546 36.5611 24.5634 34.2508 20.0643 28.7306 18.29 24.2316 20.6005 21.1862 22.1643 19.2674 25.2962 19.2573 28.7197L19.2573 28.7197C15.0489 28.2988 11.2964 31.3692 10.8755 35.5775 10.4547 39.7858 13.525 43.5384 17.7333 43.9593L17.7333 43.9593Z" fill="#203864" transform="matrix(1 0 0 1.03759 942 354)"/><path d="M58.8941 42.9479 58.5477 42.9479C58.5575 40.094 56.2519 37.7724 53.398 37.7626 52.792 37.7604 52.1904 37.865 51.6206 38.0712 50.0475 35.0257 46.3033 33.8322 43.2577 35.4053 41.2199 36.4579 39.9287 38.5487 39.9 40.8421L39.9 40.8421C37.023 40.5628 34.4645 42.6686 34.1852 45.5456 33.9059 48.4225 36.0117 50.9811 38.8886 51.2604L58.8941 51.2604C61.1896 51.2604 63.0503 49.3997 63.0503 47.1042 63.0503 44.8087 61.1896 42.9479 58.8941 42.9479Z" fill="#203864" transform="matrix(1 0 0 1.03759 942 354)"/><path d="M120.143 77.5833 119.88 77.5833C119.883 75.4103 118.124 73.6465 115.951 73.6438 115.5 73.6432 115.054 73.7198 114.629 73.8704 113.447 71.5444 110.603 70.6169 108.278 71.7989 106.694 72.6034 105.696 74.228 105.693 76.004L105.693 76.004C104.241 75.7858 102.788 76.3948 101.925 77.5833 100.615 79.3169 100.958 81.7845 102.692 83.0947 103.331 83.5779 104.103 83.8543 104.904 83.887L120.143 83.887C121.884 84.0024 123.389 82.685 123.504 80.9442 123.62 79.2036 122.302 77.6987 120.561 77.5833 120.422 77.5741 120.283 77.5741 120.143 77.5833Z" fill="#203864" transform="matrix(1 0 0 1.03759 942 354)"/><path d="M91.4375 55.4167 91.9778 55.4167 92.4766 53.2554C93.1693 48.4065 106.677 36.4365 106.677 28.3179 106.677 18.4676 98.6694 11.6929 87.2812 11.6929 75.8931 11.6929 67.8854 18.4953 67.8854 28.3179 67.8854 36.4365 81.3932 48.4065 82.0859 53.2554L82.5847 55.4167 83.125 55.4167 83.125 58.1875 83.125 58.1875 80.3542 58.1875 80.3542 58.1875 80.3542 65.7242C80.3765 66.9406 81.3808 67.9086 82.597 67.8861 82.6068 67.886 82.6165 67.8857 82.6262 67.8854L91.9362 67.8854C93.1478 67.9243 94.1632 66.9771 94.2083 65.7657L94.2083 58.1875 94.2083 58.1875 91.4375 58.1875 91.4375 58.1875ZM100.443 29.357C100.443 33.6102 96.4527 41.0776 93.5156 46.55 92.6012 48.2956 91.7839 49.875 91.0773 51.2604L91.0773 51.2604 88.9437 51.2604 89.4564 49.5009C91.1189 43.8761 94.2083 33.4024 94.2083 29.1907 94.2083 20.7812 92.1995 15.0733 88.8606 13.7433 88.8224 13.7433 88.7913 13.7123 88.7913 13.6741 88.7913 13.6358 88.8224 13.6048 88.8606 13.6048 95.8708 14.4222 100.443 20.5319 100.443 29.357ZM81.0469 46.55C78.1236 41.0083 74.1198 33.6102 74.1198 29.357 74.1198 20.5319 78.6917 14.4222 85.6603 13.6048 85.6985 13.6048 85.7296 13.6358 85.7296 13.6741 85.7296 13.7123 85.6985 13.7433 85.6603 13.7433 82.3215 15.1287 80.3126 20.6704 80.3126 29.1907 80.3126 33.347 83.4021 43.8761 85.0784 49.5148 85.2447 50.1244 85.4109 50.6924 85.5772 51.2604L83.5268 51.2604 83.5268 51.2604C82.7648 49.875 81.9613 48.2956 81.033 46.55ZM85.8958 55.4167 88.6667 55.4167 88.6667 55.4167 88.6667 58.1875 88.6667 58.1875 85.8958 58.1875 85.8958 58.1875 85.8958 55.4167 85.8958 55.4167Z" fill="#203864" transform="matrix(1 0 0 1.03759 942 354)"/></g></g></g><path d="M0.197778-3.99511 6.68672-3.67387 13.3346-2.75238 19.8573-1.30289 26.2248 0.732072 32.3242 3.15872 38.2232 6.1082 43.7996 9.38843 49.0054 13.0786 53.8388 17.1175 58.1379 21.4828 61.997 26.0072 65.303 30.8651 68.0226 35.9643 70.021 41.2014 71.2772 46.5753 71.6757 51.7557 72.0507 56.6307 71.9601 56.0381 73.0851 60.9131 72.9247 60.3865 74.7372 65.1365 74.5188 64.6604 77.0188 69.2854 76.8068 68.937 79.8693 73.437 79.6244 73.1137 83.2494 77.4262 83.0159 77.1716 87.0784 81.2341 86.8149 80.9931 91.3774 84.8056 91.1257 84.6117 96.0632 88.1117 95.7781 87.9273 101.091 91.0523 100.867 90.9303 106.43 93.7428 106.09 93.5905 111.965 95.903 111.313 95.7085 116.394 96.7636 114.768 104.597 109.353 103.472 102.986 100.966 97.1441 98.0122 91.5754 94.7366 86.3696 91.0464 81.548 87.0173 77.2368 82.7062 73.3699 78.1059 70.0783 73.2692 67.3564 68.2337 65.352 62.9808 64.0973 57.544 63.6993 52.3693 63.3243 47.4943 63.4175 48.098 62.2925 43.2855 62.4503 43.801 60.6378 39.051 60.8456 39.5074 58.3456 34.8199 58.5681 35.188 55.5056 30.688 55.7692 31.0333 52.1442 26.7833 52.3376 26.9943 48.2751 22.8693 48.5601 23.1319 43.9976 19.3194 44.2493 19.5133 39.3118 16.0133 39.5969 16.1977 34.2844 13.0727 34.5236 13.2027 28.8986 10.3902 29.2088 10.5292 23.3963 8.21666 23.6573 8.31015 17.5948 6.37265 17.9448 6.46725 11.7573 5.09225 12.0758 5.14962 5.7633 4.27462 6.11472 4.30761-0.197778 3.99511ZM113.701 88.1715 135.284 104.114 109.58 111.815Z" fill="#203864" transform="matrix(1 0 0 -1 842 512.114)"/><g clip-path="url(#clip13)"><g clip-path="url(#clip14)"><g clip-path="url(#clip15)"><path d="M788.815 503.5 777.128 503.5C775.661 503.5 774.472 504.689 774.472 506.156 774.472 507.623 775.661 508.812 777.128 508.812L788.815 508.812C790.282 508.812 791.472 507.623 791.472 506.156 791.472 504.689 790.282 503.5 788.815 503.5ZM777.836 507.219C777.249 507.219 776.774 506.743 776.774 506.156 776.774 505.569 777.249 505.094 777.836 505.094 778.423 505.094 778.899 505.569 778.899 506.156 778.899 506.743 778.423 507.219 777.836 507.219ZM782.972 507.219C782.385 507.219 781.909 506.743 781.909 506.156 781.909 505.569 782.385 505.094 782.972 505.094 783.558 505.094 784.034 505.569 784.034 506.156 784.034 506.743 783.558 507.219 782.972 507.219ZM788.107 507.219C787.52 507.219 787.045 506.743 787.045 506.156 787.045 505.569 787.52 505.094 788.107 505.094 788.694 505.094 789.17 505.569 789.17 506.156 789.17 506.743 788.694 507.219 788.107 507.219Z" fill="#4472C4"/><path d="M785.419 487.917C785.419 488.21 785.181 488.448 784.888 488.448 784.594 488.448 784.356 488.21 784.356 487.917 784.356 487.623 784.594 487.385 784.888 487.385 785.181 487.385 785.419 487.623 785.419 487.917Z" fill="#4472C4"/><path d="M786.049 484.375 783.708 484.375 783.708 482.764C784.386 482.372 784.618 481.506 784.227 480.828 783.836 480.151 782.969 479.919 782.292 480.31 781.614 480.701 781.382 481.567 781.773 482.245 781.897 482.46 782.076 482.639 782.292 482.764L782.292 484.375 779.951 484.375C779.093 484.377 778.398 485.072 778.396 485.93L778.396 489.904C778.398 490.761 779.093 491.456 779.951 491.458L786.049 491.458C786.907 491.456 787.602 490.761 787.604 489.904L787.604 485.93C787.602 485.072 786.907 484.377 786.049 484.375ZM781.229 488.979C780.642 488.979 780.167 488.503 780.167 487.917 780.167 487.33 780.642 486.854 781.229 486.854 781.816 486.854 782.292 487.33 782.292 487.917 782.292 488.503 781.816 488.979 781.229 488.979ZM784.771 488.979C784.184 488.979 783.708 488.503 783.708 487.917 783.708 487.33 784.184 486.854 784.771 486.854 785.358 486.854 785.833 487.33 785.833 487.917 785.833 488.503 785.358 488.979 784.771 488.979Z" fill="#4472C4"/><path d="M781.877 487.917C781.877 488.21 781.639 488.448 781.346 488.448 781.053 488.448 780.815 488.21 780.815 487.917 780.815 487.623 781.053 487.385 781.346 487.385 781.639 487.385 781.877 487.623 781.877 487.917Z" fill="#4472C4"/><path d="M792.208 498.832 792.208 495.882C792.208 495.004 791.496 494.292 790.618 494.292L788.667 494.292 788.667 492.521 777.333 492.521 777.333 494.646 774.674 494.646C774.578 494.646 774.5 494.568 774.5 494.472L774.5 491.536C775.717 491.177 776.413 489.898 776.053 488.681 775.957 488.354 775.789 488.054 775.562 487.8L774.5 488.742C774.649 488.903 774.733 489.114 774.737 489.333 774.735 489.822 774.336 490.217 773.847 490.214 773.358 490.211 772.964 489.813 772.966 489.324 772.968 489.112 773.044 488.909 773.182 488.749L772.12 487.818C771.285 488.777 771.386 490.231 772.345 491.065 772.562 491.254 772.812 491.401 773.083 491.497L773.083 494.472C773.083 495.351 773.795 496.062 774.674 496.062L777.333 496.062 777.333 502.438 788.667 502.438 788.667 495.708 790.618 495.708C790.714 495.708 790.792 495.786 790.792 495.882L790.792 498.832C789.582 499.223 788.919 500.521 789.31 501.731 789.408 502.034 789.568 502.313 789.779 502.551L790.841 501.609C790.695 501.448 790.614 501.238 790.615 501.021 790.615 500.532 791.012 500.136 791.501 500.136 791.99 500.137 792.386 500.533 792.385 501.022 792.385 501.237 792.307 501.444 792.166 501.605L793.228 502.537C794.066 501.583 793.973 500.131 793.019 499.293 792.783 499.085 792.507 498.929 792.208 498.832ZM787.25 497.479 786.265 497.479C786.231 497.485 786.199 497.499 786.17 497.518L785.086 498.627 784.261 496.672 782.72 499.859 781.64 495.708 780.808 497.479 779.104 497.479 779.104 496.771 780.358 496.771 781.831 493.636 782.922 497.809 784.307 494.975 785.327 497.391 785.681 497.036C785.837 496.879 786.045 496.785 786.265 496.771L787.25 496.771Z" fill="#4472C4"/></g></g></g><path d="M754.036 499.2 747.929 499.2 747.929 490.02C747.929 489.457 747.497 489 746.964 489 746.432 489 746 489.457 746 490.02L746 500.22C746 500.783 746.432 501.24 746.964 501.24L749.536 501.24 749.536 503.96 747.607 503.96 747.607 506 753.393 506 753.393 503.96 751.464 503.96 751.464 501.24 754.036 501.24C754.568 501.24 755 500.783 755 500.22 755 499.657 754.568 499.2 754.036 499.2Z" fill="#4472C4" fill-rule="evenodd"/><path d="M754.664 491.089C754.864 491.243 755.105 491.328 755.352 491.331L758.795 491.331C759.461 491.331 760 490.756 760 490.047 760 489.339 759.461 488.764 758.795 488.764L755.758 488.764 753.042 486.67C752.535 486.178 751.855 485.939 751.173 486.013 749.923 486.167 748.985 487.303 749 488.643L749 495.732C749 497.149 750.079 498.299 751.41 498.299L756.919 498.299 756.919 504.716C756.919 505.425 757.458 506 758.124 506 758.789 506 759.329 505.425 759.329 504.716L759.329 497.015C759.329 496.306 758.789 495.732 758.124 495.732L753.82 495.732 753.82 490.436Z" fill="#4472C4" fill-rule="evenodd"/><path d="M754 483.5C754 484.881 752.881 486 751.5 486 750.119 486 749 484.881 749 483.5 749 482.119 750.119 481 751.5 481 752.881 481 754 482.119 754 483.5Z" fill="#4472C4" fill-rule="evenodd"/><path d="M759 525.5C759 531.851 753.851 537 747.5 537 741.149 537 736 531.851 736 525.5 736 519.149 741.149 514 747.5 514 753.851 514 759 519.149 759 525.5Z" fill="#203864" fill-rule="evenodd"/><path d="M827 525.5C827 531.851 821.851 537 815.5 537 809.149 537 804 531.851 804 525.5 804 519.149 809.149 514 815.5 514 821.851 514 827 519.149 827 525.5Z" fill="#203864" fill-rule="evenodd"/><path d="M768.716 497.111 768.716 479.778 788.176 479.778C789.739 479.778 791.159 480.356 792.153 481.511L807.494 497.111 768.716 497.111ZM763.034 497.111 727.097 497.111 742.438 481.511C743.574 480.356 744.994 479.778 746.415 479.778L763.034 479.778 763.034 497.111ZM829.795 497.111 818.006 497.111C816.443 497.111 815.023 496.533 814.028 495.378L796.131 477.322C794 475.156 791.159 474 788.034 474L746.415 474C743.432 474 740.449 475.156 738.318 477.322L720.705 495.378C719.568 496.533 719 497.978 719 499.567L719 514.444C719 520.8 724.114 526 730.364 526L731.784 526C731.784 517.189 738.744 510.111 747.409 510.111 756.074 510.111 763.034 517.189 763.034 526L799.966 526C799.966 517.189 806.926 510.111 815.591 510.111 824.256 510.111 831.216 517.189 831.216 526L838.318 526C841.443 526 844 523.4 844 520.222L844 511.556C844 503.611 837.608 497.111 829.795 497.111Z" fill="#203864" fill-rule="evenodd"/><text fill="#4472C4" font-family="Calibri,Calibri_MSFontService,sans-serif" font-weight="700" font-size="80" transform="translate(894.924 481)">?</text></g></svg>