<svg width="1280" height="720" xmlns="http://www.w3.org/2000/svg" xmlns:xlink="http://www.w3.org/1999/xlink" overflow="hidden"><defs><clipPath id="clip0"><rect x="0" y="0" width="1280" height="720"/></clipPath><clipPath id="clip1"><rect x="998" y="496" width="99" height="95"/></clipPath><clipPath id="clip2"><rect x="998" y="496" width="99" height="95"/></clipPath><clipPath id="clip3"><rect x="998" y="496" width="99" height="95"/></clipPath><clipPath id="clip4"><rect x="262" y="570" width="100" height="95"/></clipPath><clipPath id="clip5"><rect x="262" y="570" width="100" height="95"/></clipPath><clipPath id="clip6"><rect x="262" y="570" width="100" height="95"/></clipPath><clipPath id="clip7"><rect x="163" y="489" width="83" height="79"/></clipPath><clipPath id="clip8"><rect x="163" y="489" width="83" height="79"/></clipPath><clipPath id="clip9"><rect x="163" y="489" width="83" height="79"/></clipPath><clipPath id="clip10"><rect x="292" y="318" width="56" height="54"/></clipPath><clipPath id="clip11"><rect x="292" y="318" width="56" height="54"/></clipPath><clipPath id="clip12"><rect x="292" y="318" width="56" height="54"/></clipPath><clipPath id="clip13"><rect x="297" y="305" width="42" height="41"/></clipPath><clipPath id="clip14"><rect x="297" y="305" width="42" height="41"/></clipPath><clipPath id="clip15"><rect x="297" y="305" width="42" height="41"/></clipPath><clipPath id="clip16"><rect x="398" y="490" width="85" height="89"/></clipPath><clipPath id="clip17"><rect x="398" y="490" width="85" height="89"/></clipPath><clipPath id="clip18"><rect x="398" y="490" width="85" height="89"/></clipPath><clipPath id="clip19"><rect x="315" y="399" width="54" height="57"/></clipPath><clipPath id="clip20"><rect x="315" y="399" width="54" height="57"/></clipPath><clipPath id="clip21"><rect x="315" y="399" width="54" height="57"/></clipPath><clipPath id="clip22"><rect x="254" y="408" width="36" height="39"/></clipPath><clipPath id="clip23"><rect x="254" y="408" width="36" height="39"/></clipPath><clipPath id="clip24"><rect x="254" y="408" width="36" height="39"/></clipPath><linearGradient x1="286" y1="426" x2="319" y2="426" gradientUnits="userSpaceOnUse" spreadMethod="reflect" id="fill25"><stop offset="0" stop-color="#8FAADC"/><stop offset="0.00840336" stop-color="#8EA9DB"/><stop offset="0.0168067" stop-color="#8EA9DB"/><stop offset="0.0252101" stop-color="#8EA9DB"/><stop offset="0.0336134" stop-color="#8EA9DB"/><stop offset="0.0420168" stop-color="#8EA9DB"/><stop offset="0.0504202" stop-color="#8EA9DB"/><stop offset="0.0588235" stop-color="#8EA9DB"/><stop offset="0.0672269" stop-color="#8EA9DB"/><stop offset="0.0756303" stop-color="#8EA9DB"/><stop offset="0.0840336" stop-color="#8DA8DA"/><stop offset="0.092437" stop-color="#8DA8DA"/><stop offset="0.10084" stop-color="#8DA8DA"/><stop offset="0.109244" stop-color="#8DA8DA"/><stop offset="0.117647" stop-color="#8CA7D9"/><stop offset="0.12605" stop-color="#8CA7D9"/><stop offset="0.134454" stop-color="#8CA7D9"/><stop offset="0.142857" stop-color="#8CA7D8"/><stop offset="0.151261" stop-color="#8BA6D8"/><stop offset="0.159664" stop-color="#8BA6D8"/><stop offset="0.168067" stop-color="#8BA5D7"/><stop offset="0.176471" stop-color="#8AA5D7"/><stop offset="0.184874" stop-color="#8AA5D6"/><stop offset="0.193277" stop-color="#89A4D6"/><stop offset="0.201681" stop-color="#89A4D6"/><stop offset="0.210084" stop-color="#89A3D5"/><stop offset="0.218487" stop-color="#88A3D5"/><stop offset="0.226891" stop-color="#88A2D4"/><stop offset="0.235294" stop-color="#87A2D4"/><stop offset="0.243697" stop-color="#87A1D3"/><stop offset="0.252101" stop-color="#86A1D2"/><stop offset="0.260504" stop-color="#86A0D2"/><stop offset="0.268908" stop-color="#85A0D1"/><stop offset="0.277311" stop-color="#849FD1"/><stop offset="0.285714" stop-color="#849FD0"/><stop offset="0.294118" stop-color="#839ECF"/><stop offset="0.302521" stop-color="#839DCF"/><stop offset="0.310924" stop-color="#829DCE"/><stop offset="0.319328" stop-color="#819CCD"/><stop offset="0.327731" stop-color="#819BCD"/><stop offset="0.336134" stop-color="#809BCC"/><stop offset="0.344538" stop-color="#7F9ACB"/><stop offset="0.352941" stop-color="#7F99CA"/><stop offset="0.361345" stop-color="#7E99CA"/><stop offset="0.369748" stop-color="#7D98C9"/><stop offset="0.378151" stop-color="#7D97C8"/><stop offset="0.386555" stop-color="#7C96C7"/><stop offset="0.394958" stop-color="#7B96C6"/><stop offset="0.403361" stop-color="#7A95C6"/><stop offset="0.411765" stop-color="#7994C5"/><stop offset="0.420168" stop-color="#7993C4"/><stop offset="0.428571" stop-color="#7892C3"/><stop offset="0.436975" stop-color="#7791C2"/><stop offset="0.445378" stop-color="#7690C1"/><stop offset="0.453782" stop-color="#7590C0"/><stop offset="0.462185" stop-color="#748FBF"/><stop offset="0.470588" stop-color="#738EBE"/><stop offset="0.478992" stop-color="#738DBD"/><stop offset="0.487395" stop-color="#728CBC"/><stop offset="0.495798" stop-color="#718BBB"/><stop offset="0.504202" stop-color="#708ABA"/><stop offset="0.512605" stop-color="#6F89B9"/><stop offset="0.521008" stop-color="#6E88B8"/><stop offset="0.529412" stop-color="#6D87B7"/><stop offset="0.537815" stop-color="#6C86B6"/><stop offset="0.546219" stop-color="#6B85B5"/><stop offset="0.554622" stop-color="#6A84B4"/><stop offset="0.563025" stop-color="#6983B3"/><stop offset="0.571429" stop-color="#6882B1"/><stop offset="0.579832" stop-color="#6780B0"/><stop offset="0.588235" stop-color="#657FAF"/><stop offset="0.596639" stop-color="#647EAE"/><stop offset="0.605042" stop-color="#637DAD"/><stop offset="0.613445" stop-color="#627CAB"/><stop offset="0.621849" stop-color="#617BAA"/><stop offset="0.630252" stop-color="#607AA9"/><stop offset="0.638655" stop-color="#5F78A8"/><stop offset="0.647059" stop-color="#5D77A6"/><stop offset="0.655462" stop-color="#5C76A5"/><stop offset="0.663866" stop-color="#5B75A4"/><stop offset="0.672269" stop-color="#5A73A3"/><stop offset="0.680672" stop-color="#5972A1"/><stop offset="0.689076" stop-color="#5771A0"/><stop offset="0.697479" stop-color="#566F9E"/><stop offset="0.705882" stop-color="#556E9D"/><stop offset="0.714286" stop-color="#536D9C"/><stop offset="0.722689" stop-color="#526B9A"/><stop offset="0.731092" stop-color="#516A99"/><stop offset="0.739496" stop-color="#4F6997"/><stop offset="0.747899" stop-color="#4E6796"/><stop offset="0.756303" stop-color="#4D6694"/><stop offset="0.764706" stop-color="#4B6593"/><stop offset="0.773109" stop-color="#4A6391"/><stop offset="0.781513" stop-color="#496290"/><stop offset="0.789916" stop-color="#47608E"/><stop offset="0.798319" stop-color="#465F8D"/><stop offset="0.806723" stop-color="#445D8B"/><stop offset="0.815126" stop-color="#435C8A"/><stop offset="0.823529" stop-color="#415A88"/><stop offset="0.831933" stop-color="#405987"/><stop offset="0.840336" stop-color="#3E5785"/><stop offset="0.84874" stop-color="#3D5683"/><stop offset="0.857143" stop-color="#3B5482"/><stop offset="0.865546" stop-color="#3A5380"/><stop offset="0.87395" stop-color="#38517E"/><stop offset="0.882353" stop-color="#374F7D"/><stop offset="0.890756" stop-color="#354E7B"/><stop offset="0.89916" stop-color="#344C79"/><stop offset="0.907563" stop-color="#324A77"/><stop offset="0.915966" stop-color="#304976"/><stop offset="0.92437" stop-color="#2F4774"/><stop offset="0.932773" stop-color="#2D4572"/><stop offset="0.941176" stop-color="#2B4470"/><stop offset="0.94958" stop-color="#2A426F"/><stop offset="0.957983" stop-color="#28406D"/><stop offset="0.966387" stop-color="#263F6B"/><stop offset="0.97479" stop-color="#253D69"/><stop offset="0.983193" stop-color="#233B67"/><stop offset="0.991597" stop-color="#213965"/><stop offset="1" stop-color="#203864"/></linearGradient><clipPath id="clip26"><rect x="275" y="483" width="82" height="81"/></clipPath><clipPath id="clip27"><rect x="275" y="483" width="82" height="81"/></clipPath><clipPath id="clip28"><rect x="275" y="483" width="82" height="81"/></clipPath><clipPath id="clip29"><rect x="965" y="419" width="60" height="60"/></clipPath><clipPath id="clip30"><rect x="965" y="419" width="60" height="60"/></clipPath><clipPath id="clip31"><rect x="965" y="419" width="60" height="60"/></clipPath><clipPath id="clip32"><rect x="1067" y="192" width="47" height="54"/></clipPath><clipPath id="clip33"><rect x="1067" y="192" width="47" height="54"/></clipPath><clipPath id="clip34"><rect x="1067" y="192" width="47" height="54"/></clipPath><clipPath id="clip35"><rect x="1012" y="251" width="47" height="54"/></clipPath><clipPath id="clip36"><rect x="1012" y="251" width="47" height="54"/></clipPath><clipPath id="clip37"><rect x="1012" y="251" width="47" height="54"/></clipPath><clipPath id="clip38"><rect x="1020" y="318" width="31" height="30"/></clipPath><clipPath id="clip39"><rect x="1020" y="318" width="31" height="30"/></clipPath><clipPath id="clip40"><rect x="1020" y="318" width="31" height="30"/></clipPath><clipPath id="clip41"><rect x="1006" y="363" width="27" height="27"/></clipPath><clipPath id="clip42"><rect x="1006" y="363" width="27" height="27"/></clipPath><clipPath id="clip43"><rect x="1006" y="363" width="27" height="27"/></clipPath><clipPath id="clip44"><rect x="1052" y="352" width="30" height="30"/></clipPath><clipPath id="clip45"><rect x="1052" y="352" width="30" height="30"/></clipPath><clipPath id="clip46"><rect x="1052" y="352" width="30" height="30"/></clipPath></defs><g clip-path="url(#clip0)"><rect x="0" y="0" width="1280" height="720" fill="#FFFFFF"/><path d="M904 492C904 554.15 967.45 605 1045 605 1122.55 605 1186 554.15 1186 492L904 492Z" fill="#4472C4" fill-rule="evenodd"/><path d="M899.102 479.833 982.733 152.451 1028.77 161.961 945.137 489.343Z" fill="#4472C4" fill-rule="evenodd"/><path d="M1137.59 490.41 1048.28 164.532 1092.99 150.019 1182.3 475.896Z" fill="#4472C4" fill-rule="evenodd"/><path d="M178 561C178 623.15 241.45 674 319 674 396.55 674 460 623.15 460 561L178 561Z" fill="#4472C4" fill-rule="evenodd"/><path d="M173.298 549.066 256.93 221.685 302.965 231.195 219.334 558.576Z" fill="#4472C4" fill-rule="evenodd"/><path d="M411.789 559.644 322.478 233.766 367.189 219.252 456.5 545.13Z" fill="#4472C4" fill-rule="evenodd"/><path d="M262.736 195.458 1081.47 103.696 1087.24 147.944 268.506 239.707Z" fill="#4472C4" fill-rule="evenodd"/><g clip-path="url(#clip1)"><g clip-path="url(#clip2)"><g clip-path="url(#clip3)"><path d="M47.5 9.89583C26.7188 9.89583 9.89583 26.7188 9.89583 47.5 9.89583 68.2812 26.7188 85.1042 47.5 85.1042 68.2812 85.1042 85.1042 68.2812 85.1042 47.5 85.1042 26.7188 68.2812 9.89583 47.5 9.89583ZM24.8385 28.6979C24.5417 27.6094 25.1354 26.5208 26.125 26.224 26.5208 26.125 34.9323 23.75 41.0677 30.776 41.7604 31.5677 41.6615 32.8542 40.8698 33.5469 40.474 33.8438 40.0781 34.0417 39.5833 34.0417 38.9896 34.0417 38.4948 33.8438 38.099 33.349 33.6458 28.2031 27.5104 29.8854 27.3125 29.9844 26.224 30.2812 25.1354 29.6875 24.8385 28.6979ZM25.7292 41.5625C25.7292 38.2969 28.401 35.625 31.6667 35.625 34.9323 35.625 37.6042 38.2969 37.6042 41.5625 37.6042 44.8281 34.9323 47.5 31.6667 47.5 28.401 47.5 25.7292 44.8281 25.7292 41.5625ZM47.5 66.3021C42.9479 66.3021 38.8906 67.9844 35.724 70.7552 36.4167 64.9167 41.4635 60.3646 47.5 60.3646 53.5365 60.3646 58.5833 64.9167 59.276 70.7552 56.1094 67.9844 52.0521 66.3021 47.5 66.3021ZM63.3333 47.5C60.0677 47.5 57.3958 44.8281 57.3958 41.5625 57.3958 38.2969 60.0677 35.625 63.3333 35.625 66.599 35.625 69.2708 38.2969 69.2708 41.5625 69.2708 44.8281 66.599 47.5 63.3333 47.5ZM70.1615 28.6979C69.8646 29.7865 68.776 30.3802 67.6875 30.0833 67.3906 29.9844 61.2552 28.3021 56.901 33.4479 56.5052 33.9427 55.9115 34.1406 55.4167 34.1406 54.9219 34.1406 54.526 33.9427 54.1302 33.6458 53.3385 32.9531 53.2396 31.6667 53.9323 30.875 60.0677 23.849 68.4792 26.224 68.875 26.3229 69.8646 26.5208 70.4583 27.6094 70.1615 28.6979Z" fill="#203864" transform="matrix(1.04211 0 0 1 998 496)"/></g></g></g><g clip-path="url(#clip4)"><g clip-path="url(#clip5)"><g clip-path="url(#clip6)"><path d="M47.5 9.89583C26.7188 9.89583 9.89583 26.7188 9.89583 47.5 9.89583 68.2812 26.7188 85.1042 47.5 85.1042 68.2812 85.1042 85.1042 68.2812 85.1042 47.5 85.1042 26.7188 68.2812 9.89583 47.5 9.89583ZM25.7292 41.5625C25.7292 38.2969 28.401 35.625 31.6667 35.625 34.9323 35.625 37.6042 38.2969 37.6042 41.5625 37.6042 44.8281 34.9323 47.5 31.6667 47.5 28.401 47.5 25.7292 44.8281 25.7292 41.5625ZM67.0938 63.5312C62.5417 69.4687 55.5156 73.2292 47.5 73.2292 39.4844 73.2292 32.4583 69.4687 27.9062 63.5312 27.7083 63.2344 27.5104 62.8385 27.5104 62.3438 27.5104 61.2552 28.401 60.3646 29.4896 60.3646 30.1823 60.3646 30.776 60.6615 31.0729 61.1562 34.8333 66.1042 40.7708 69.1719 47.5 69.1719 54.2292 69.1719 60.0677 66.1042 63.9271 61.1562 64.3229 60.6615 64.9167 60.3646 65.5104 60.3646 66.599 60.3646 67.4896 61.2552 67.4896 62.3438 67.4896 62.8385 67.2917 63.2344 67.0938 63.5312ZM63.3333 47.5C60.0677 47.5 57.3958 44.8281 57.3958 41.5625 57.3958 38.2969 60.0677 35.625 63.3333 35.625 66.599 35.625 69.2708 38.2969 69.2708 41.5625 69.2708 44.8281 66.599 47.5 63.3333 47.5Z" fill="#203864" transform="matrix(1.05263 0 0 1 262 570)"/></g></g></g><g clip-path="url(#clip7)"><g clip-path="url(#clip8)"><g clip-path="url(#clip9)"><path d="M70.7708 58.4271 68.3021 60.8958 11.5208 60.8958 8.22917 57.6042 8.22917 41.1458 11.5208 37.8542 68.3021 37.8542 70.7708 40.3229 70.7708 58.4271ZM3.29167 32.9167 3.29167 65.8333 75.7083 65.8333 75.7083 32.9167 3.29167 32.9167Z" fill="#203864" transform="matrix(1.05063 0 0 1 163 489)"/><path d="M46.0833 49.375C46.0833 53.9198 43.1359 57.6042 39.5 57.6042 35.8641 57.6042 32.9167 53.9198 32.9167 49.375 32.9167 44.8302 35.8641 41.1458 39.5 41.1458 43.1359 41.1458 46.0833 44.8302 46.0833 49.375Z" fill="#203864" transform="matrix(1.05063 0 0 1 163 489)"/><path d="M21.3958 49.375C21.3958 50.7385 20.2905 51.8438 18.9271 51.8438 17.5636 51.8438 16.4583 50.7385 16.4583 49.375 16.4583 48.0116 17.5636 46.9062 18.9271 46.9062 20.2905 46.9062 21.3958 48.0116 21.3958 49.375Z" fill="#203864" transform="matrix(1.05063 0 0 1 163 489)"/><path d="M62.5417 49.375C62.5417 50.7385 61.4364 51.8438 60.0729 51.8438 58.7095 51.8438 57.6042 50.7385 57.6042 49.375 57.6042 48.0116 58.7095 46.9062 60.0729 46.9062 61.4364 46.9062 62.5417 48.0116 62.5417 49.375Z" fill="#203864" transform="matrix(1.05063 0 0 1 163 489)"/><path d="M54.2302 17.0344 55.4646 20.1615 60.4021 19.174 56.9458 10.5333 12.6729 28.6375 38.0188 23.6177Z" fill="#203864" transform="matrix(1.05063 0 0 1 163 489)"/><path d="M49.951 29.625 62.9531 27.074 63.5292 29.625 68.549 29.625 66.9031 21.2313 24.6875 29.625Z" fill="#203864" transform="matrix(1.05063 0 0 1 163 489)"/></g></g></g><text fill="#001628" font-family="Calibri,Calibri_MSFontService,sans-serif" font-weight="400" font-size="13" transform="translate(166.048 495)">Monetary bonus</text><g clip-path="url(#clip10)"><g clip-path="url(#clip11)"><g clip-path="url(#clip12)"><path d="M48.4312 8.8875 19.6313 36.1125 5.79375 21.9375 1.0125 26.4937 19.4062 45.3937 24.2437 40.8937 52.9875 13.6125Z" fill="#8FAADC" transform="matrix(1.03704 0 0 1 292 318)"/></g></g></g><g clip-path="url(#clip13)"><g clip-path="url(#clip14)"><g clip-path="url(#clip15)"><path d="M14.5208 38.0104 19.2188 22.2083 11.9583 22.2083 15.5544 3.09208 26.2998 3.09208 21.7812 17.0833 29.0417 17.0833 14.5208 38.0104Z" fill="#203864" transform="matrix(1.02439 0 0 1 297 305)"/></g></g></g><path d="M297.999 370.003 297.999 370.003C297.986 369.848 297.96 369.698 297.924 369.558 297.924 369.558 297.924 369.558 297.924 369.506L285.301 321.107C285.263 320.965 285.213 320.835 285.155 320.723 286.062 320 286.5 317.967 286.133 316.181 285.766 314.395 284.733 313.533 283.826 314.255 282.919 314.978 282.481 317.011 282.848 318.797 283.028 319.673 283.381 320.368 283.826 320.723 283.779 320.825 283.739 320.94 283.706 321.063L271.084 369.462C271.084 369.462 271.084 369.462 271.084 369.515 271.047 369.655 271.022 369.805 271.008 369.959L271.008 369.959C270.997 370.104 270.997 370.251 271.008 370.395 271.008 370.395 271.008 370.465 271.008 370.5 271.02 370.641 271.041 370.779 271.07 370.91 271.07 370.91 271.07 370.91 271.07 370.91 271.07 370.91 271.115 371.032 271.132 371.102 271.159 371.189 271.189 371.274 271.221 371.355L271.221 371.355C271.243 371.392 271.267 371.427 271.292 371.459 271.33 371.531 271.371 371.595 271.416 371.651 271.45 371.687 271.486 371.719 271.522 371.747L271.655 371.843 271.77 371.843 271.867 372 271.93 372 271.987 372C272.068 371.985 272.148 371.944 272.222 371.878L284.499 361.247 296.759 371.852C296.87 371.951 296.991 372.002 297.113 372L297.113 372C297.187 371.997 297.26 371.977 297.33 371.939L297.392 371.939C297.449 371.897 297.503 371.847 297.556 371.791L297.596 371.738C297.654 371.666 297.708 371.582 297.756 371.485L297.756 371.485C297.79 371.4 297.821 371.31 297.849 371.215 297.868 371.159 297.886 371.101 297.902 371.041 297.902 371.041 297.902 371.041 297.902 371.041 297.932 370.907 297.952 370.766 297.964 370.622 297.964 370.622 297.964 370.561 297.964 370.526 297.992 370.357 298.004 370.18 297.999 370.003ZM290.47 348.594 285.996 342.638 288.153 339.734ZM284.49 325.676 287.338 336.586 284.424 340.536 281.767 337.048C281.709 336.969 281.646 336.904 281.581 336.856ZM280.779 339.899 282.856 342.664 278.511 348.533ZM273.794 366.689 276.921 354.69 282.294 359.338ZM278.75 352.466 284.433 344.766 290.226 352.483 284.499 357.437ZM293.809 365.494 286.701 359.346 292.064 354.707 295.187 366.68Z" fill="#203864" fill-rule="evenodd"/><path d="M364.999 369.003 364.999 369.003C364.986 368.848 364.96 368.698 364.924 368.558 364.924 368.558 364.924 368.558 364.924 368.506L352.301 320.107C352.263 319.965 352.213 319.835 352.155 319.723 353.062 319 353.5 316.967 353.133 315.181 352.766 313.395 351.733 312.533 350.826 313.255 349.919 313.978 349.481 316.011 349.848 317.797 350.028 318.673 350.381 319.368 350.826 319.723 350.779 319.825 350.739 319.94 350.706 320.063L338.084 368.462C338.084 368.462 338.084 368.462 338.084 368.515 338.047 368.655 338.022 368.805 338.008 368.959L338.008 368.959C337.997 369.104 337.997 369.251 338.008 369.395 338.008 369.395 338.008 369.465 338.008 369.5 338.02 369.641 338.041 369.779 338.07 369.91 338.07 369.91 338.07 369.91 338.07 369.91 338.07 369.91 338.115 370.032 338.132 370.102 338.159 370.189 338.189 370.274 338.221 370.355L338.221 370.355C338.243 370.392 338.267 370.427 338.292 370.459 338.33 370.531 338.371 370.595 338.416 370.651 338.45 370.687 338.486 370.719 338.522 370.747L338.655 370.843 338.77 370.843 338.867 371 338.93 371 338.987 371C339.068 370.985 339.148 370.944 339.222 370.878L351.499 360.247 363.759 370.852C363.87 370.951 363.991 371.002 364.113 371L364.113 371C364.187 370.997 364.26 370.977 364.33 370.939L364.392 370.939C364.449 370.897 364.503 370.847 364.556 370.791L364.596 370.738C364.654 370.666 364.708 370.582 364.756 370.485L364.756 370.485C364.79 370.4 364.821 370.31 364.849 370.215 364.868 370.159 364.886 370.101 364.902 370.041 364.902 370.041 364.902 370.041 364.902 370.041 364.932 369.907 364.952 369.766 364.964 369.622 364.964 369.622 364.964 369.561 364.964 369.526 364.992 369.357 365.004 369.18 364.999 369.003ZM357.47 347.594 352.996 341.638 355.153 338.734ZM351.49 324.676 354.338 335.586 351.424 339.536 348.767 336.048C348.709 335.969 348.646 335.904 348.581 335.856ZM347.779 338.899 349.856 341.664 345.511 347.533ZM340.794 365.689 343.921 353.69 349.294 358.338ZM345.75 351.466 351.433 343.766 357.226 351.483 351.499 356.437ZM360.809 364.494 353.701 358.346 359.064 353.707 362.187 365.68Z" fill="#203864" fill-rule="evenodd"/><path d="M0 0 66.3769 0.762835" stroke="#203864" stroke-width="3.46667" stroke-miterlimit="8" fill="#203864" fill-rule="evenodd" transform="matrix(1 0 0 -1 287.5 317.263)"/><path d="M0 0 66.3769 0.762835" stroke="#203864" stroke-width="3.46667" stroke-miterlimit="8" fill="#203864" fill-rule="evenodd" transform="matrix(1 0 0 -1 285.5 322.263)"/><path d="M0 0 66.3769 0.762835" stroke="#203864" stroke-width="3.46667" stroke-miterlimit="8" fill="#203864" fill-rule="evenodd" transform="matrix(1 0 0 -1 286.5 327.263)"/><text fill="#001628" font-family="Calibri,Calibri_MSFontService,sans-serif" font-weight="400" font-size="13" transform="translate(279.105 298)">Grid benefits</text><g clip-path="url(#clip16)"><g clip-path="url(#clip17)"><g clip-path="url(#clip18)"><path d="M81.4583 42.5C81.4583 40.5521 79.8646 38.9583 77.9167 38.9583 77.2083 38.9583 76.5885 39.1354 76.0573 39.4896L60.9167 48.1667C61.0938 49.1406 61.0938 50.1146 60.9167 51.1771 60.2083 54.4531 57.1094 56.6667 53.7448 56.6667L38.0729 56.6667 38.0729 53.125 54.0104 53.125C55.9583 53.125 57.5521 51.5312 57.5521 49.5833 57.5521 47.6354 55.9583 46.0417 54.0104 46.0417 54.0104 46.0417 32.9375 46.0417 32.7604 46.0417 31.2552 46.0417 29.8385 46.4844 28.599 47.1927L3.54167 59.3229 15.9375 71.7188C21.6927 65.9635 29.1302 63.75 37.1875 63.75L53.7448 63.75C54.5417 63.75 55.25 63.4844 55.8698 63.0417L80.2188 45.2448C80.9271 44.5365 81.4583 43.5625 81.4583 42.5Z" fill="#203864" transform="matrix(1 0 0 1.04706 398 490)"/><path d="M69.151 13.4583C69.151 13.4583 58.1719 12.0417 52.3281 17.8854 48.0781 22.1354 47.6354 28.9531 47.724 32.4948 45.8646 33.8229 44.2708 35.7708 43.2083 38.0729 42.9427 37.7188 42.7656 37.3646 42.5 37.0104 42.5885 34.0885 42.1458 28.5104 38.6927 25.0573 33.8229 20.1875 24.7917 21.4271 24.7917 21.4271 24.7917 21.4271 23.6406 30.4583 28.4219 35.3281 31.5208 38.4271 36.4792 39.0469 39.4896 39.1354 40.375 40.1094 40.9948 41.526 41.4375 42.7656 41.526 43.0312 41.6146 43.651 41.6146 44.4479L45.2448 44.4479C45.3333 42.5885 45.599 41.526 46.3073 40.0208 47.1927 37.8958 48.6979 36.125 50.4688 35.0625 54.099 35.151 60.651 34.5312 64.724 30.4583 70.5677 24.4375 69.151 13.4583 69.151 13.4583Z" fill="#203864" transform="matrix(1 0 0 1.04706 398 490)"/></g></g></g><text fill="#001628" font-family="Calibri,Calibri_MSFontService,sans-serif" font-weight="400" font-size="13" transform="translate(394.594 494)">Help environment</text><g clip-path="url(#clip19)"><g clip-path="url(#clip20)"><g clip-path="url(#clip21)"><path d="M46.6875 14.0625C46.6875 15.6158 45.4283 16.875 43.875 16.875 42.3217 16.875 41.0625 15.6158 41.0625 14.0625 41.0625 12.5092 42.3217 11.25 43.875 11.25 45.4283 11.25 46.6875 12.5092 46.6875 14.0625Z" fill="#203864" transform="matrix(1 0 0 1.05556 315 399)"/><path d="M35.4375 14.0625C35.4375 15.6158 34.1783 16.875 32.625 16.875 31.0717 16.875 29.8125 15.6158 29.8125 14.0625 29.8125 12.5092 31.0717 11.25 32.625 11.25 34.1783 11.25 35.4375 12.5092 35.4375 14.0625Z" fill="#203864" transform="matrix(1 0 0 1.05556 315 399)"/><path d="M24.1875 14.0625C24.1875 15.6158 22.9283 16.875 21.375 16.875 19.8217 16.875 18.5625 15.6158 18.5625 14.0625 18.5625 12.5092 19.8217 11.25 21.375 11.25 22.9283 11.25 24.1875 12.5092 24.1875 14.0625Z" fill="#203864" transform="matrix(1 0 0 1.05556 315 399)"/><path d="M12.9375 14.0625C12.9375 15.6158 11.6783 16.875 10.125 16.875 8.5717 16.875 7.3125 15.6158 7.3125 14.0625 7.3125 12.5092 8.5717 11.25 10.125 11.25 11.6783 11.25 12.9375 12.5092 12.9375 14.0625Z" fill="#203864" transform="matrix(1 0 0 1.05556 315 399)"/><path d="M49.8263 10.9744C49.2418 10.7634 48.5971 11.0662 48.3861 11.6507 48.3823 11.6614 48.3785 11.6723 48.375 11.6831L46.2769 17.8706C45.5017 17.6096 44.6925 17.4637 43.875 17.4375 43.0477 17.4624 42.2287 17.6102 41.445 17.8763L39.375 11.6831C39.1408 11.0742 38.4573 10.7705 37.8484 11.0047 37.5365 11.1247 37.29 11.3712 37.17 11.6831L35.0719 17.8706C34.2825 17.6047 33.4577 17.4588 32.625 17.4375 31.7982 17.463 30.9796 17.6089 30.195 17.8706L28.125 11.6831C27.8908 11.0742 27.2073 10.7705 26.5984 11.0047 26.2865 11.1247 26.04 11.3712 25.92 11.6831L23.8275 17.8706C23.0354 17.6075 22.2092 17.4616 21.375 17.4375 20.5477 17.4624 19.7287 17.6102 18.945 17.8763L16.875 11.6831C16.6408 11.0742 15.9573 10.7705 15.3484 11.0047 15.0365 11.1247 14.79 11.3712 14.67 11.6831L12.5719 17.8706C11.7819 17.6071 10.9574 17.4612 10.125 17.4375 9.29773 17.4624 8.47873 17.6102 7.695 17.8763L5.625 11.6831C5.42618 11.0944 4.78776 10.7783 4.19906 10.9772 3.61036 11.176 3.2943 11.8144 3.49312 12.4031L6.27187 20.61C6.42324 21.0585 6.83921 21.3644 7.3125 21.375L7.3125 24.75 5.625 33.1875 7.3125 33.1875 7.3125 42.75 9.5625 42.75 9.5625 33.1875 10.6875 33.1875 10.6875 42.75 12.9375 42.75 12.9375 33.1875 14.625 33.1875 12.9375 24.75 12.9375 21.375C13.4191 21.3738 13.8465 21.0662 14.0006 20.61L15.75 15.4462 17.4994 20.61C17.6535 21.0662 18.0809 21.3738 18.5625 21.375L18.5625 42.75 20.8125 42.75 20.8125 29.8125 21.9375 29.8125 21.9375 42.75 24.1875 42.75 24.1875 21.375C24.6691 21.3738 25.0965 21.0662 25.2506 20.61L27 15.4462 28.7494 20.61C28.9035 21.0662 29.3309 21.3738 29.8125 21.375L29.8125 24.75 28.125 33.1875 29.8125 33.1875 29.8125 42.75 32.0625 42.75 32.0625 33.1875 33.1875 33.1875 33.1875 42.75 35.4375 42.75 35.4375 33.1875 37.125 33.1875 35.4375 24.75 35.4375 21.375C35.9191 21.3738 36.3465 21.0662 36.5006 20.61L38.25 15.4462 39.9994 20.61C40.1535 21.0662 40.5809 21.3738 41.0625 21.375L41.0625 42.75 43.3125 42.75 43.3125 29.8125 44.4375 29.8125 44.4375 42.75 46.6875 42.75 46.6875 21.375C47.1691 21.3738 47.5965 21.0662 47.7506 20.61L50.5294 12.4031C50.7301 11.8151 50.4161 11.1757 49.8281 10.975 49.8275 10.9748 49.8269 10.9746 49.8263 10.9744Z" fill="#203864" transform="matrix(1 0 0 1.05556 315 399)"/></g></g></g><g clip-path="url(#clip22)"><g clip-path="url(#clip23)"><g clip-path="url(#clip24)"><path d="M21 4.125C21 5.78185 19.6569 7.125 18 7.125 16.3431 7.125 15 5.78185 15 4.125 15 2.46815 16.3431 1.125 18 1.125 19.6569 1.125 21 2.46815 21 4.125Z" fill="#8FAADC" transform="matrix(1 0 0 1.08333 254 408)"/><path d="M26.175 19.575 24.075 10.65C24 10.35 23.85 10.05 23.625 9.825 22.725 9.075 21.675 8.55 20.475 8.175 19.65 8.025 18.825 7.875 18 7.875 17.175 7.875 16.35 8.025 15.525 8.25 14.325 8.55 13.275 9.15 12.375 9.9 12.15 10.125 12 10.425 11.925 10.725L9.825 19.65C9.825 19.725 9.75 19.875 9.75 20.025 9.75 20.85 10.425 21.525 11.25 21.525 11.925 21.525 12.525 21 12.675 20.4L14.25 13.875 14.25 34.875 17.25 34.875 17.25 21.375 18.75 21.375 18.75 34.875 21.75 34.875 21.75 13.8 23.325 20.325C23.475 20.925 24.075 21.45 24.75 21.45 25.575 21.45 26.25 20.775 26.25 19.95 26.25 19.8 26.175 19.65 26.175 19.575Z" fill="#8FAADC" transform="matrix(1 0 0 1.08333 254 408)"/></g></g></g><path d="M286 420.5 308 420.5 308 415 319 426 308 437 308 431.5 286 431.5Z" fill="url(#fill25)" fill-rule="evenodd"/><text fill="#001628" font-family="Calibri,Calibri_MSFontService,sans-serif" font-weight="400" font-size="13" transform="translate(267.658 406)">Look like others</text><g clip-path="url(#clip26)"><g clip-path="url(#clip27)"><g clip-path="url(#clip28)"><path d="M67.5 62.0156 67.5 38.3063 69.2719 45.6469C69.4406 46.3219 70.1156 46.9125 70.875 46.9125 71.8031 46.9125 72.5625 46.1531 72.5625 45.225 72.5625 45.0563 72.4781 44.8875 72.4781 44.8031L70.1156 34.7625C70.0312 34.425 69.8625 34.0875 69.6094 33.8344 68.5969 32.9906 67.4156 32.4 66.0656 31.9781 65.1375 31.8094 64.2094 31.6406 63.2812 31.6406 62.3531 31.6406 61.425 31.8094 60.4969 32.0625 59.1469 32.4 57.9656 33.075 56.9531 33.9188 56.7 34.1719 56.5312 34.5094 56.4469 34.8469L54.0844 44.8875C54.0844 44.9719 54 45.1406 54 45.3094 54 46.2375 54.7594 46.9969 55.6875 46.9969 56.4469 46.9969 57.1219 46.4062 57.2906 45.7313L59.0625 38.3906 59.0625 62.0156 52.3125 62.0156 52.3125 48.5156 44.7188 48.5156 44.7188 35.0156 44.7188 23.8781 52.0594 11.3906C52.5656 10.5469 52.2281 9.53438 51.4688 9.1125 50.625 8.60625 49.6125 8.94375 49.1906 9.70312L43.875 18.7313C43.7062 18.6469 43.5375 18.5625 43.2844 18.5625 42.3563 18.3094 41.4281 18.1406 40.5 18.1406L40.5 18.1406C39.5719 18.1406 38.6437 18.3094 37.7156 18.5625 37.5469 18.6469 37.3781 18.6469 37.125 18.7313L31.8094 9.70312C31.3031 8.85938 30.2906 8.60625 29.5312 9.1125 28.6875 9.61875 28.4344 10.6313 28.9406 11.3906L36.2812 23.8781 36.2812 35.0156 36.2812 48.5156 28.6875 48.5156 28.6875 55.2656 22.7812 55.2656 22.7812 31.5563 24.5531 38.8969C24.7219 39.5719 25.3969 40.1625 26.1562 40.1625 27.0844 40.1625 27.8438 39.4031 27.8438 38.475 27.8438 38.3063 27.7594 38.1375 27.7594 38.0531L25.3969 28.0125C25.3125 27.675 25.1437 27.3375 24.8906 27.0844 23.8781 26.2406 22.6969 25.65 21.3469 25.2281 20.4188 25.0594 19.4906 24.8906 18.5625 24.8906 17.6344 24.8906 16.7062 25.0594 15.7781 25.3125 14.4281 25.65 13.2469 26.325 12.2344 27.1688 11.9812 27.4219 11.8125 27.7594 11.7281 28.0969L9.36563 38.1375C9.36563 38.2219 9.28125 38.3906 9.28125 38.5594 9.28125 39.4875 10.0406 40.2469 10.9688 40.2469 11.7281 40.2469 12.4031 39.6562 12.5719 38.9813L14.3438 31.6406 14.3438 55.2656 6.75 55.2656 6.75 72.1406 74.25 72.1406 74.25 62.0156 67.5 62.0156ZM19.4062 55.2656 17.7188 55.2656 17.7188 40.0781 19.4062 40.0781 19.4062 55.2656ZM41.3438 48.5156 39.6562 48.5156 39.6562 33.3281 41.3438 33.3281 41.3438 48.5156ZM64.125 62.0156 62.4375 62.0156 62.4375 46.8281 64.125 46.8281 64.125 62.0156Z" fill="#203864" transform="matrix(1.01235 0 0 1 275 483)"/><path d="M21.9375 20.6719C21.9375 22.5358 20.4265 24.0469 18.5625 24.0469 16.6985 24.0469 15.1875 22.5358 15.1875 20.6719 15.1875 18.8079 16.6985 17.2969 18.5625 17.2969 20.4265 17.2969 21.9375 18.8079 21.9375 20.6719Z" fill="#203864" transform="matrix(1.01235 0 0 1 275 483)"/><path d="M66.6562 27.4219C66.6562 29.2858 65.1452 30.7969 63.2812 30.7969 61.4173 30.7969 59.9062 29.2858 59.9062 27.4219 59.9062 25.5579 61.4173 24.0469 63.2812 24.0469 65.1452 24.0469 66.6562 25.5579 66.6562 27.4219Z" fill="#203864" transform="matrix(1.01235 0 0 1 275 483)"/><path d="M43.875 13.9219C43.875 15.7858 42.364 17.2969 40.5 17.2969 38.636 17.2969 37.125 15.7858 37.125 13.9219 37.125 12.0579 38.636 10.5469 40.5 10.5469 42.364 10.5469 43.875 12.0579 43.875 13.9219Z" fill="#203864" transform="matrix(1.01235 0 0 1 275 483)"/></g></g></g><text fill="#001628" font-family="Calibri,Calibri_MSFontService,sans-serif" font-weight="400" font-size="13" transform="translate(264.221 480)">Distinguish from others</text><path d="M315.112 515.751 315.112 531.109 316.778 531.109 316.778 515.751ZM306.33 491.049C306.736 491.156 307.111 491.433 307.361 491.86L312.611 500.99C312.862 500.904 313.028 500.904 313.195 500.819 314.112 500.563 315.028 500.392 315.945 500.392 316.862 500.392 317.778 500.563 318.695 500.819 318.945 500.819 319.112 500.904 319.279 500.99L324.529 491.86C324.945 491.092 325.946 490.751 326.779 491.263 327.529 491.689 327.862 492.713 327.362 493.566L320.112 506.194 320.112 517.457 320.112 531.109 327.612 531.109 327.612 544.761 328 544.761 328 555 304 555 304 537.935 304.278 537.935 304.278 531.109 311.778 531.109 311.778 517.457 311.778 506.194 304.528 493.566C304.028 492.798 304.278 491.775 305.111 491.263 305.486 491.007 305.924 490.943 306.33 491.049Z" fill="#8FAADC" fill-rule="evenodd"/><path d="M319 497C319 498.657 317.657 500 316 500 314.343 500 313 498.657 313 497 313 495.343 314.343 494 316 494 317.657 494 319 495.343 319 497Z" fill="#8FAADC" fill-rule="evenodd"/><path d="M0 35.5 35.4999 0 35.4999 17.7501 187 17.7501 187 53.2501 35.4999 53.2501 35.4999 71Z" fill="#203864" fill-rule="evenodd" transform="matrix(-1 0 0 1 1150 413)"/><path d="M0 35.5 35.4999 0 35.4999 17.75 121 17.75 121 53.25 35.4999 53.25 35.4999 71Z" fill="#8FAADC" fill-rule="evenodd" transform="matrix(-1 0 0 1 1082 413)"/><g clip-path="url(#clip29)"><g clip-path="url(#clip30)"><g clip-path="url(#clip31)"><path d="M990.625 460.25C990.625 462.494 988.806 464.312 986.562 464.312 984.319 464.312 982.5 462.494 982.5 460.25 982.5 458.006 984.319 456.188 986.562 456.188 988.806 456.188 990.625 458.006 990.625 460.25Z" fill="#203864"/><path d="M1015.62 460.25C1015.62 462.494 1013.81 464.312 1011.56 464.312 1009.32 464.312 1007.5 462.494 1007.5 460.25 1007.5 458.006 1009.32 456.188 1011.56 456.188 1013.81 456.188 1015.62 458.006 1015.62 460.25Z" fill="#203864"/><path d="M1016.93 449.625 1012.56 449.625C1012 449.637 1011.46 449.41 1011.09 449L1004.47 442.394C1003.71 441.519 1002.64 440.975 1001.48 440.875L986.081 440.875C984.927 440.985 983.858 441.528 983.088 442.394L976.569 449C976.163 449.4 975.937 449.949 975.944 450.519L975.944 454 972.819 454C972.301 454.003 971.878 453.586 971.875 453.069 971.875 453.067 971.875 453.065 971.875 453.062L971.875 442.244C973.396 441.706 974.403 440.257 974.375 438.644L974.375 436.5 973.125 436.5 973.125 434C973.125 433.655 972.845 433.375 972.5 433.375 972.155 433.375 971.875 433.655 971.875 434L971.875 436.5 970 436.5 970 434C970 433.655 969.72 433.375 969.375 433.375 969.03 433.375 968.75 433.655 968.75 434L968.75 436.5 967.5 436.5 967.5 438.644C967.472 440.257 968.479 441.706 970 442.244L970 453.062C970.003 454.614 971.261 455.872 972.812 455.875L975.938 455.875 975.938 455.875C975.944 458.194 977.825 460.072 980.144 460.075L980.669 460.075C980.658 456.892 983.23 454.304 986.412 454.294 986.425 454.294 986.438 454.294 986.45 454.294 989.687 454.352 992.27 457.013 992.231 460.25L1005.89 460.25C1005.87 457.025 1008.45 454.383 1011.67 454.325 1014.86 454.315 1017.45 456.886 1017.46 460.069 1017.46 460.081 1017.46 460.094 1017.46 460.106L1020.09 460.106C1021.25 460.103 1022.18 459.165 1022.19 458.006L1022.19 454.881C1022.19 451.985 1019.85 449.632 1016.96 449.625 1016.95 449.625 1016.94 449.625 1016.93 449.625ZM992.5 449.625 978.931 449.625 984.612 443.919C985.071 443.539 985.655 443.345 986.25 443.375L992.5 443.375ZM994.375 449.625 994.375 443.375 1001.53 443.375C1002.08 443.331 1002.62 443.53 1003.01 443.919L1008.68 449.625Z" fill="#203864"/></g></g></g><text fill="#001628" font-family="Calibri,Calibri_MSFontService,sans-serif" font-weight="400" font-size="13" transform="translate(960.094 399)">Range loss</text><g clip-path="url(#clip32)"><g clip-path="url(#clip33)"><g clip-path="url(#clip34)"><path d="M30.8438 7.34375 7.34375 7.34375 7.34375 22.0312 10.2812 22.0312 10.2812 10.2812 13.2188 10.2812 13.2188 22.0312 22.0312 22.0312 22.0312 30.8438 13.2188 30.8438 13.2188 33.7812 24.9688 33.7812 24.9688 19.0938 16.1562 19.0938 16.1562 10.2812 22.0312 10.2812 22.0312 13.2188 19.0938 13.2188 19.0938 16.1562 24.9688 16.1562 24.9688 10.2812 30.8438 10.2812 30.8438 7.34375Z" fill="#203864" transform="matrix(1 0 0 1.14894 1067 192)"/><path d="M33.7812 7.34375 33.7812 10.2812 36.7188 10.2812 36.7188 13.2188 27.9062 13.2188 27.9062 22.0312 30.8438 22.0312 30.8438 16.1562 36.7188 16.1562 36.7188 19.5833 33.7812 19.5833 33.7812 22.5208 36.7188 22.5208 36.7188 30.8438 30.8438 30.8438 30.8438 27.9062 34.2708 27.9062 34.2708 24.9688 27.9062 24.9688 27.9062 33.7812 36.7188 33.7812 36.7188 36.7188 10.2812 36.7188 10.2812 27.9062 19.0938 27.9062 19.0938 24.9688 7.34375 24.9688 7.34375 39.6562 39.6562 39.6562 39.6562 7.34375 33.7812 7.34375Z" fill="#203864" transform="matrix(1 0 0 1.14894 1067 192)"/></g></g></g><g clip-path="url(#clip35)"><g clip-path="url(#clip36)"><g clip-path="url(#clip37)"><path d="M23.5 4.89583C13.2188 4.89583 4.89583 13.2188 4.89583 23.5 4.89583 33.7812 13.2188 42.1042 23.5 42.1042 33.7812 42.1042 42.1042 33.7812 42.1042 23.5 42.1042 13.2188 33.7812 4.89583 23.5 4.89583ZM12.2885 14.3938C12.4354 13.8552 12.974 13.5615 13.5125 13.7083 13.6594 13.7573 16.6948 14.5896 18.849 12.0438 19.1917 11.6521 19.8281 11.6031 20.2198 11.9458 20.6115 12.2885 20.6604 12.925 20.3177 13.3167 18.5552 15.3729 16.3521 15.8135 14.8344 15.8135 13.7573 15.8135 13.0229 15.6177 12.925 15.5688 12.4354 15.4708 12.1417 14.9323 12.2885 14.3938ZM12.7292 20.5625C12.7292 18.9469 14.051 17.625 15.6667 17.625 17.2823 17.625 18.6042 18.9469 18.6042 20.5625 18.6042 22.1781 17.2823 23.5 15.6667 23.5 14.051 23.5 12.7292 22.1781 12.7292 20.5625ZM23.5 32.949C20.7094 32.949 18.0167 33.6344 15.6667 34.7604 17.1354 31.9208 20.0729 30.0115 23.5 30.0115 26.9271 30.0115 29.8646 31.9698 31.3333 34.7604 28.9833 33.5854 26.2906 32.949 23.5 32.949ZM31.3333 23.5C29.7177 23.5 28.3958 22.1781 28.3958 20.5625 28.3958 18.9469 29.7177 17.625 31.3333 17.625 32.949 17.625 34.2708 18.9469 34.2708 20.5625 34.2708 22.1781 32.949 23.5 31.3333 23.5ZM34.075 15.6177C34.026 15.6177 33.2427 15.8625 32.1656 15.8625 30.6479 15.8625 28.4448 15.4219 26.6823 13.3656 26.3396 12.974 26.3885 12.3375 26.7802 11.9948 27.1719 11.6521 27.8083 11.701 28.151 12.0927 30.3542 14.6385 33.3896 13.8063 33.4875 13.7573 34.026 13.6104 34.5646 13.9042 34.7115 14.4427 34.8583 14.9323 34.5646 15.4708 34.075 15.6177Z" fill="#203864" transform="matrix(1 0 0 1.14894 1012 251)"/></g></g></g><path d="M1057.31 208.289C1056.37 200.838 1061.22 193.977 1068.15 192.963 1070.96 192.553 1073.81 193.166 1076.26 194.707 1078.85 189.456 1084.9 187.46 1089.78 190.249 1090.63 190.737 1091.42 191.355 1092.1 192.085 1094.12 187.732 1099.04 185.963 1103.08 188.135 1104.2 188.736 1105.18 189.605 1105.94 190.675 1109.19 186.559 1114.94 186.051 1118.77 189.54 1120.38 191.006 1121.47 193.029 1121.85 195.261 1127.17 196.824 1130.32 202.746 1128.87 208.488 1128.75 208.971 1128.59 209.444 1128.41 209.903 1132.68 215.886 1131.64 224.461 1126.07 229.056 1124.34 230.487 1122.3 231.413 1120.13 231.745 1120.09 238.182 1115.19 243.358 1109.2 243.306 1107.2 243.289 1105.24 242.677 1103.54 241.538 1101.52 248.754 1094.45 252.833 1087.76 250.648 1084.95 249.732 1082.53 247.796 1080.9 245.169 1074.05 249.613 1065.16 247.223 1061.04 239.829 1060.99 239.736 1060.93 239.643 1060.88 239.548 1056.4 240.113 1052.34 236.672 1051.81 231.863 1051.53 229.299 1052.32 226.734 1053.96 224.849 1050.08 222.391 1048.78 216.996 1051.05 212.798 1052.36 210.377 1054.66 208.776 1057.24 208.488Z" stroke="#203864" stroke-width="5.6" stroke-miterlimit="8" fill="none" fill-rule="evenodd"/><path d="M1044.96 255.61C1044.96 256.592 1044.16 257.388 1043.18 257.388 1042.2 257.388 1041.4 256.592 1041.4 255.61 1041.4 254.628 1042.2 253.832 1043.18 253.832 1044.16 253.832 1044.96 254.628 1044.96 255.61Z" stroke="#203864" stroke-width="5.6" stroke-miterlimit="8" fill="none" fill-rule="evenodd"/><path d="M1051.92 251.594C1051.92 253.558 1050.33 255.15 1048.37 255.15 1046.4 255.15 1044.81 253.558 1044.81 251.594 1044.81 249.631 1046.4 248.039 1048.37 248.039 1050.33 248.039 1051.92 249.631 1051.92 251.594Z" stroke="#203864" stroke-width="5.6" stroke-miterlimit="8" fill="none" fill-rule="evenodd"/><path d="M1061.7 245.403C1061.7 248.349 1059.32 250.736 1056.37 250.736 1053.43 250.736 1051.04 248.349 1051.04 245.403 1051.04 242.458 1053.43 240.07 1056.37 240.07 1059.32 240.07 1061.7 242.458 1061.7 245.403Z" stroke="#203864" stroke-width="5.6" stroke-miterlimit="8" fill="none" fill-rule="evenodd"/><path d="M1058.8 225.781C1057.14 225.92 1055.48 225.508 1054.05 224.6M1062.99 238.702C1062.32 238.988 1061.62 239.178 1060.91 239.267M1080.9 244.911C1080.39 244.102 1079.98 243.238 1079.64 242.333M1104.05 238.483C1103.98 239.442 1103.81 240.39 1103.55 241.312M1113.99 221.006C1117.75 222.973 1120.12 227.086 1120.09 231.577M1128.37 209.747C1127.76 211.276 1126.83 212.633 1125.66 213.711M1121.86 195.039C1121.96 195.656 1122.01 196.283 1122 196.911M1104.52 192.855C1104.87 191.991 1105.34 191.187 1105.91 190.467M1091.51 193.993C1091.66 193.279 1091.88 192.587 1092.19 191.934M1076.25 194.692C1077.13 195.249 1077.95 195.92 1078.69 196.689M1057.74 210.391C1057.55 209.704 1057.4 209.001 1057.31 208.289" stroke="#203864" stroke-width="5.6" stroke-miterlimit="8" fill="none" fill-rule="evenodd"/><text fill="#001628" font-family="Calibri,Calibri_MSFontService,sans-serif" font-weight="400" font-size="13" transform="translate(989.712 182)">Complexity of experience</text><g clip-path="url(#clip38)"><g clip-path="url(#clip39)"><g clip-path="url(#clip40)"><path d="M15 18.75C12.9375 18.75 11.25 17.0625 11.25 15 11.25 12.9375 12.9375 11.25 15 11.25 17.0625 11.25 18.75 12.9375 18.75 15 18.75 17.0625 17.0625 18.75 15 18.75ZM23.4375 12.6562C23.25 11.9688 22.9688 11.3125 22.625 10.7188L23.4062 8.375 21.625 6.59375 19.2812 7.375C18.6562 7.03125 18 6.75 17.3125 6.5625L16.25 4.375 13.75 4.375 12.6562 6.5625C11.9688 6.75 11.3125 7.03125 10.7188 7.375L8.375 6.59375 6.59375 8.375 7.375 10.7188C7.03125 11.3438 6.75 12 6.5625 12.6875L4.375 13.75 4.375 16.25 6.5625 17.3438C6.75 18.0312 7.03125 18.6875 7.375 19.2812L6.59375 21.625 8.375 23.4062 10.7188 22.625C11.3438 22.9688 12 23.25 12.6875 23.4375L13.7812 25.625 16.2812 25.625 17.375 23.4375C18.0625 23.25 18.7188 22.9688 19.3125 22.625L21.6562 23.4062 23.4375 21.625 22.6562 19.2812C23 18.6562 23.2812 18 23.4688 17.3125L25.6562 16.2188 25.6562 13.7188 23.4375 12.6562Z" fill="#203864" transform="matrix(1.03333 0 0 1 1020 318)"/></g></g></g><g clip-path="url(#clip41)"><g clip-path="url(#clip42)"><g clip-path="url(#clip43)"><path d="M1029.46 368.934 1027.07 366.544 1019.5 374.109 1011.93 366.544 1009.54 368.934 1017.11 376.5 1009.54 384.066 1011.93 386.456 1019.5 378.891 1027.07 386.456 1029.46 384.066 1021.89 376.5Z" fill="#8FAADC"/></g></g></g><path d="M1048.38 335.593C1055.99 337.831 1062.05 343.27 1064.75 350.294L1061.73 348.613C1060.83 348.037 1059.61 348.247 1059 349.083 1058.38 349.919 1058.6 351.063 1059.5 351.639 1059.58 351.693 1059.67 351.741 1059.76 351.783L1066.64 355.596C1066.99 355.857 1067.42 356 1067.86 356L1067.91 356 1068.07 356 1068.15 356 1068.15 356 1068.31 356C1068.81 355.878 1069.24 355.574 1069.51 355.155L1073.81 348.383C1074.28 347.468 1073.86 346.371 1072.88 345.932 1072.01 345.54 1070.97 345.801 1070.42 346.546L1068.6 349.44 1068.6 349.44C1066.33 343.233 1061.76 337.99 1055.73 334.656 1053.78 333.583 1051.71 332.72 1049.55 332.084 1048.51 331.782 1047.41 332.323 1047.09 333.292 1046.77 334.261 1047.34 335.292 1048.38 335.593Z" fill="#203864" fill-rule="evenodd"/><path d="M1012.79 364.57C1012.99 365.409 1013.77 366.002 1014.66 366 1014.81 365.999 1014.96 365.98 1015.1 365.944 1016.12 365.693 1016.74 364.701 1016.5 363.715 1015.03 357.64 1016.07 351.253 1019.38 345.901 1020.15 344.645 1021.03 343.458 1022.02 342.353L1022.08 342.409 1022.08 345.808C1022.08 346.834 1022.94 347.666 1024 347.666 1025.06 347.666 1025.92 346.834 1025.92 345.808L1026 337.932C1026 336.906 1025.14 336.074 1024.08 336.074L1015.91 336C1014.85 336 1013.99 336.832 1013.99 337.858 1013.99 338.884 1014.85 339.715 1015.91 339.715L1019.33 339.715C1018.08 341.035 1016.98 342.465 1016.02 343.988 1012.21 350.182 1011.05 357.564 1012.79 364.57Z" fill="#203864" fill-rule="evenodd"/><path d="M1058.68 375.563C1052.86 380.878 1044.75 383.17 1036.88 381.726L1036.88 381.726 1039.93 380.057C1040.85 379.546 1041.16 378.411 1040.63 377.523 1040.1 376.635 1038.93 376.33 1038.01 376.842L1030.97 380.706C1030.05 381.212 1029.73 382.343 1030.25 383.233 1030.25 383.234 1030.25 383.235 1030.25 383.236L1034.29 390.067C1034.81 390.957 1035.99 391.264 1036.91 390.752 1037.83 390.241 1038.15 389.104 1037.62 388.213L1035.9 385.322C1045.07 387.106 1054.56 384.468 1061.34 378.25 1062.14 377.577 1062.22 376.406 1061.53 375.635 1060.83 374.864 1059.62 374.784 1058.82 375.457 1058.78 375.491 1058.75 375.526 1058.71 375.563Z" fill="#203864" fill-rule="evenodd"/><g clip-path="url(#clip44)"><g clip-path="url(#clip45)"><g clip-path="url(#clip46)"><path d="M1067 370.75C1064.94 370.75 1063.25 369.062 1063.25 367 1063.25 364.938 1064.94 363.25 1067 363.25 1069.06 363.25 1070.75 364.938 1070.75 367 1070.75 369.062 1069.06 370.75 1067 370.75ZM1075.44 364.656C1075.25 363.969 1074.97 363.312 1074.62 362.719L1075.41 360.375 1073.62 358.594 1071.28 359.375C1070.66 359.031 1070 358.75 1069.31 358.562L1068.25 356.375 1065.75 356.375 1064.66 358.562C1063.97 358.75 1063.31 359.031 1062.72 359.375L1060.38 358.594 1058.59 360.375 1059.38 362.719C1059.03 363.344 1058.75 364 1058.56 364.688L1056.38 365.75 1056.38 368.25 1058.56 369.344C1058.75 370.031 1059.03 370.688 1059.38 371.281L1058.59 373.625 1060.38 375.406 1062.72 374.625C1063.34 374.969 1064 375.25 1064.69 375.438L1065.78 377.625 1068.28 377.625 1069.38 375.438C1070.06 375.25 1070.72 374.969 1071.31 374.625L1073.66 375.406 1075.44 373.625 1074.66 371.281C1075 370.656 1075.28 370 1075.47 369.312L1077.66 368.219 1077.66 365.719 1075.44 364.656Z" fill="#203864"/></g></g></g><text fill="#001628" font-family="Calibri,Calibri_MSFontService,sans-serif" font-weight="400" font-size="13" transform="translate(1001.78 316)">Loss of control</text><path d="M92 123.002C92 60.0405 143.04 9 206.002 9L1150 9C1212.96 9 1264 60.0405 1264 123.002L1264 578.998C1264 641.959 1212.96 693 1150 693L206.002 693C143.04 693 92 641.959 92 578.998Z" stroke="#4472C4" stroke-width="8" stroke-miterlimit="8" fill="none" fill-rule="evenodd"/><text fill="#203864" font-family="Calibri,Calibri_MSFontService,sans-serif" font-weight="700" font-size="80" transform="translate(283.719 112)">Benefits and drawbacks</text></g></svg>